<svg width="1366" height="219" viewBox="0 0 1366 219" fill="none" xmlns="http://www.w3.org/2000/svg" class="welcomeIllustrationContainer--3f260776"><path d="M1177.42 19.634h54.3s3.3-14.05-3.99-14.918c-2.08.17-4 3.463-4 3.463s-4.17 1.736-3.82-2.076c.52-3.302-.7-6.425-3.29-6.076-2.59.349-9.72 4.49-14.4 9.788-1.4 1.667-5.21 2.335-6.59 0-1.57-2.325-5.07-2.694-7.99-.439-2.91 2.255-10.22 10.258-10.22 10.258zM173.98 46.295h72.84s2.734-12.343-8.342-13.86c-3.272 0-6.545 2.774-8.311 4.291-1.258.5-5.798 2.265-6.805-3.283-1.008-5.547-3.273-8.311-6.546-8.052-3.273 0-9.569 3.772-14.109 8.81-2.514 2.266-6.047 5.28-12.592 1.627-2.784-1.068-9.589-3.392-16.135 10.467z" fill="#ECF3FF"></path><path opacity="0.5" d="M0 15.884s125.763 43.37 173.851 66.44c52.716 24.039 218.251 98.747 313.497 114.437 96.177 15.69 184.916 13.835 217.332 10.144 34.214-3.69 211.763-38.751 313.5-83.047 0 0 307.46-109.02 348.01-109.02 1.66 131.323.26 202.999.26 202.999H1.07S4.068 11.855 0 15.885z" fill="var(--kf-color-gray-200)"></path><path d="M356.07 203.969v13.071s0 1.657 1.447 1.706c1.447.05 28.757 0 28.757 0s1.706 0 1.846-2.085c-.05-2.544 0-12.383 0-12.383l-32.05-.309z" fill="#78B6F9"></path><path d="M354.833 192.574a2.654 2.654 0 012.425-2.415c2.085-.14 29.006 0 29.006 0a2.724 2.724 0 012.993 2.415c.459 2.794.908 7.424.908 7.424a4.579 4.579 0 01-2.993 5.058 6.63 6.63 0 01-1.646.41c-3.573.429-16.843 1.995-28.109-.619a4.77 4.77 0 01-3.682-4.989v-.08a1606.07 1606.07 0 011.098-7.204z" fill="#AAD0F9"></path><path d="M361.398 198.631v19.836c.029.619.387 1.175.938 1.457a1.38 1.38 0 001.218 0c.384-.206.658-.571.748-.998.098-.323.145-.66.14-.998-.05-3.402 0-19.357 0-19.357l-3.044.06z" fill="#F1F3F5"></path><circle cx="362.925" cy="201.235" r="0.399" fill="#58A3FF"></circle><circle cx="362.925" cy="211.363" r="0.399" fill="#58A3FF"></circle><circle cx="362.925" cy="214.226" r="0.399" fill="#58A3FF"></circle><rect x="360.241" y="203.071" width="5.358" height="3.981" rx="1.991" fill="#58A3FF"></rect><path d="M379.768 198.212v19.826c.027.622.385 1.181.938 1.467.38.189.827.189 1.207 0 .385-.206.659-.571.749-.998a3.21 3.21 0 00.139-.998c-.049-3.412 0-19.357 0-19.357l-3.033.06z" fill="#F1F3F5"></path><circle cx="381.285" cy="200.816" r="0.399" fill="#58A3FF"></circle><circle cx="381.285" cy="210.934" r="0.399" fill="#58A3FF"></circle><circle cx="381.285" cy="213.807" r="0.399" fill="#58A3FF"></circle><rect x="378.611" y="202.652" width="5.358" height="3.981" rx="1.991" fill="#58A3FF"></rect><path d="M364.442 190.099s.998.409 3.712-3.183a3.87 3.87 0 01.309-.369 3.594 3.594 0 011.846-.998 5.868 5.868 0 016.166 1.996c1.068 1.357 1.747 2.325 2.994 2.544h2.694a7.042 7.042 0 01-4.849-2.993 6.067 6.067 0 00-5.309-2.774 6.151 6.151 0 00-4.151 1.427 7.99 7.99 0 00-1.377 1.457 6.236 6.236 0 01-4.081 2.873l2.046.02z" fill="#AAD0F9"></path><path d="M365.889 206.094s-.669 3.812 1.806 3.991h8.92c.08 0 1.417 0 1.497-1.995v-1.996s-4.081.21-5.927.19c-1.846-.02-5.149-.09-6.296-.19z" fill="#F1F3F5"></path><path d="M366.028 208.728v3.144s0 1.406 1.816 1.406h8.711c.356 0 .704-.108.998-.309.391-.279.628-.727.639-1.207.049-1.317-.11-3.642-.11-3.642a2.077 2.077 0 01-1.088 1.866 1.894 1.894 0 01-.618.119h-8.502a1.865 1.865 0 01-1.327-.459 2.292 2.292 0 01-.519-.918zM389.636 203.071l1.946 11.345s0 .998-1.127.219a1.707 1.707 0 00-2.335.31v-10.347a4.555 4.555 0 001.516-1.527zM354.464 202.692l-1.776 11.135s-.39 1.716 1.387.808c.628-.239.828-.618 1.995.14v-10.497a5.14 5.14 0 01-1.606-1.586z" fill="#AAD0F9"></path><path d="M391.323 214.935c-.359.1-.868-.3-.868-.3l-1.607-10.606s.419-.16.788-.998l1.916 11.135s.19.599-.229.769zM356.07 204.278l-1.576 10.168c-.343.174-.7.318-1.068.429-.309.05-.828.08-.778-.808l1.566-9.789.25-1.586a4.47 4.47 0 001.606 1.586z" fill="#78B6F9"></path><path fill="#ECF3FF" d="M368.762 74.084h36.939v44.013h-36.939z"></path><path d="M405.701 117.988l-36.939-43.904v43.904h36.939z" fill="#BAD8FF"></path><path fill="#fff" d="M314.831 39.999h63.111v63.111h-63.111z"></path><path fill="#BAD8FF" d="M320.638 47.383h51.507V76.2h-51.507z"></path><circle cx="324.529" cy="84.751" r="2.295" fill="#248AFF"></circle><path d="M324.614 96.49l-2.658-2.46 2.46-2.658 2.658 2.46-2.46 2.659z" fill="#248AFF"></path><path d="M332.143 84.322h39.264M332.033 93.93h39.264" stroke="#58A3FF" stroke-width="2" stroke-linecap="round" stroke-linejoin="round"></path><path d="M314.831 103.11h63.111V40.099" stroke="#BAD8FF" stroke-width="0.5" stroke-linecap="round" stroke-linejoin="round"></path><path d="M289.796 74.533c.642-3.885.956-7.817.938-11.754a19.144 19.144 0 00-.609-4.68c-.21-.588.07-4.989 6.226-5.587 3.712-.19 5.159-.809 5.488 2.454.449 2.245 1.846 7.394 1.846 7.394s2.734 5.747-1.846 6.356c.489 4.29.789 6.486.789 6.486s-4.78 2.514-12.832-.669z" fill="#FF8680"></path><path d="M297.988 63.408s-.609 3.123-2.335 3.332c-1.936.27-5.328.659-5.328.659v-7.903a25.72 25.72 0 00-.589-2.704 4.995 4.995 0 01-.26-1.706 3.132 3.132 0 011.318-2.644c.997-.5 2.195-.35 2.414 0 .31-1.517.938-2.435 2.146-2.595.778-.07 2.384.629 2.624 1.307.878-1.436 3.183-3.432 5.258-2.434a2.875 2.875 0 011.577 2.664c0 1.177-.729 2.554-3.562 3.193-1.108.33-2.475.918-2.086 4.54-.608 0-2.544.11-2.544 2.095a2.295 2.295 0 001.367 2.196z" fill="#1D2B36"></path><path d="M300.033 62.789c-.517.65-1.373.93-2.175.708" stroke="#1D2B36" stroke-width="0.36" stroke-linecap="round" stroke-linejoin="round"></path><path d="M301.839 68.716l-3.372-.1 3.861 4.51-.489-4.41z" fill="#000" opacity="0.1"></path><path clip-rule="evenodd" d="M300.991 59.756s.998 2.744 3.143 2.614c.579-.12 1.088-.918.21-3.472a5.118 5.118 0 00-.928-1.677 3.072 3.072 0 00-1.337-.998 1.187 1.187 0 00-1.447.799 4.06 4.06 0 00.359 2.734v0z" stroke="#1D2B36" stroke-width="0.36"></path><path d="M299.185 59.147s1.307-.559 1.357-.559" stroke="#1D2B36" stroke-width="0.36"></path><path d="M303.136 63.497s-1.895 0-2.255-1.626" stroke="#1D2B36" stroke-width="0.36" stroke-linecap="round" stroke-linejoin="round"></path><path d="M302.268 59.386a.36.36 0 11.001.72.36.36 0 01-.001-.72z" fill="#1D2B36"></path><path d="M285.555 202.771v16.165l25.185-.589s4.989-.588.658-3.083c-4.699-2.504-6.466-3.313-6.466-3.313l-.888-9.18h-18.489zM314.422 203.39l.509 13.211s-.15 2.235 3.193 2.305c3.711.07 22.949 0 22.949 0s4.61-.449 0-3.043a40.816 40.816 0 01-6.096-3.862l.159-8.611h-20.714z" fill="#CC4E00"></path><path d="M335.855 212.7c.049 0-2.475 1.925-2.475 1.925M338.858 214.625l-2.125 2.046M306.459 212.7l-2.704 1.925M308.814 213.897l-2.355 2.265" stroke="#F58220" stroke-width="0.5" stroke-linecap="round" stroke-linejoin="round"></path><path d="M334.967 212.031h-20.186l-.359-8.641 20.704.03-.159 8.611z" fill="#F58220"></path><g opacity="0.2" fill="#CC4E00"><path d="M316.417 203.55c0-.589-.808-.629-.998-.12h-.089a.498.498 0 100 .998 75.75 75.75 0 00.149 9.868c.06.629 1.058.639.998 0-.28-3.576-.3-7.167-.06-10.746zM317.375 203.46a248.358 248.358 0 00-.279 12.592.498.498 0 10.998 0c0-4.197.093-8.395.279-12.592.03-.639-.968-.639-.998 0zM319.002 203.729c0 4.471-.203 8.937-.609 13.401-.06.639.998.639.998 0 .399-4.464.605-8.93.618-13.401a.507.507 0 00-1.007 0zM320.838 204.538a3223.2 3223.2 0 00-.619 11.784c0 .638.998.638.998 0 .199-3.932.402-7.86.608-11.784.05-.649-.957-.649-.987 0zM323.083 203.241c-.868.199-.639 1.646-.669 2.285-.05 1.127-.11 2.245-.16 3.372l-.329 6.985c0 .638.998.638.998 0 .09-1.996.19-3.991.279-5.987 0-.998.1-1.926.14-2.884l.07-1.447v-.848-.359a.902.902 0 000-.18.507.507 0 00-.329-.937zM324.34 203.819a288.86 288.86 0 00-.788 11.525c0 .639.997.639.997 0 .18-3.852.443-7.693.789-11.525.06-.638-.938-.638-.998 0zM325.986 203.909a194.037 194.037 0 01-1.127 12.243c-.08.639.928.629.998 0 .498-4.071.874-8.152 1.127-12.243.04-.649-.958-.639-.998 0zM327.802 203.819a167.102 167.102 0 01-1.616 13.171c-.11.629.858.898.998.26.725-4.451 1.28-8.927 1.666-13.431.01-.638-.988-.638-1.048 0zM329.279 203.909c-.1 2.115-.2 4.241-.289 6.356a33.831 33.831 0 01-.589 6.107c-.14.628.818.898.998.269.387-2.02.591-4.07.608-6.126l.3-6.606c-.03-.649-1.028-.639-1.028 0zM331.135 203.55l-.718 12.413c0 .638.997.638.997 0l.709-12.413c.05-.639-.958-.639-.988 0zM333.091 203.46a671.714 671.714 0 01-.679 11.884c0 .639.998.639.998 0 .273-3.991.499-7.953.678-11.884.03-.639-.967-.639-.997 0z"></path></g><path d="M304.932 211.951h-19.377v-9.18s18.489-.229 18.489 0c0 .23.888 9.18.888 9.18z" fill="#F58220"></path><g opacity="0.2" fill="#CC4E00"><path d="M287.181 202.851c0-.638-.997-.638-.997 0a153.08 153.08 0 010 13.311c0 .649.997.649.997 0 .193-4.43.193-8.867 0-13.311zM288.02 202.642a5830.17 5830.17 0 00-.22 15.017.5.5 0 00.998 0c.066-5.009.14-10.015.219-15.017a.498.498 0 10-.997 0zM290.744 202.642a.51.51 0 00-.998 0c.1 4.47.14 8.94.12 13.41a.498.498 0 10.997 0c.014-4.45-.026-8.92-.119-13.41zM292.699 202.752a.508.508 0 00-.997 0c-.067 4.217.053 8.434.359 12.652.05.638 1.047.648.998 0a143.536 143.536 0 01-.36-12.652zM294.465 202.532c0-.639-.997-.639-.997 0 .219 5.122.282 10.238.189 15.346a.51.51 0 00.998 0c.093-5.115.03-10.231-.19-15.346zM296.112 202.642a.498.498 0 10-.998 0c.113 4.404.22 8.804.319 13.201a.51.51 0 00.998 0l-.319-13.201zM298.227 202.642c0-.639-.998-.639-.998 0 .34 5.042.493 10.084.459 15.127a.5.5 0 00.998 0 205.16 205.16 0 00-.459-15.127zM300.592 202.961a.5.5 0 00-.998 0c.16 4.331.263 8.654.31 12.972a.499.499 0 10.997 0c-.04-4.324-.143-8.648-.309-12.972zM302.538 202.522c-.05-.629-1.048-.639-.998 0 .399 4.763.758 9.523 1.078 14.279.049.638 1.047.648.997 0a851.198 851.198 0 00-1.077-14.279z"></path></g><path d="M314.422 117.309l17.082 41.409a38.474 38.474 0 011.766 10.058c.479 5.897 1.866 35.582 1.866 35.582h-20.714v-1.437s-2.385-1.437-.789-4.789c-.798-2.555-1.616-2.994.789-5.269.489-19.627 0-26.322 0-26.322l-12.273-33.995 1.995 70.844h-18.589v-3.512s-4.989-1.118-1.616-5.428c-.938-1.756-2.994-2.714.658-4.79-.479-23.289-1.616-71.213-1.616-71.213l31.441-1.138z" fill="#FFC74F"></path><path d="M326.176 86.647l4.65-9.41a5.984 5.984 0 00.538-4.84c-.668-1.895-.249-3.132.998-1.476.838.868 1.198 1.626 2.245-.37 1.287-2.254 4.65-7.173 3.413-2.424a25.983 25.983 0 01-1.607 4.081s1.617-1.107 1.627 1.058c.429 0 1.337 0 1.077 1.437 0 0 1.547-.998-.299 3.302-2.804 6.636-4.909 13.052-4.909 13.052s-5.628 1.257-7.733-4.41z" fill="#FF8680"></path><path d="M275.457 112.17s0-16.244 1.537-26.431c.728-2.804 1.556-5.498 3.522-7.833 1.587-1.896 5.907-3.702 8.501-4.63 2.645 1.357 8.382-.46 13.581.379 2.295 0 7.383-.718 12.173 5.408a20.077 20.077 0 012.794 4.99c2.734 7.203 3.871 10.576 3.871 10.576l5.329-9.12s5.088 5.987 10.826 5.727c-6.316 12.872-7.314 18.051-11.415 22.561-2.235 1.846-7.075 6.516-11.754-3.333-.19 0 .189 6.825 0 6.825-8.542.31-27.51.998-31.611 1.188-.08 0 .21-6.875.13-6.865h-.599l-6.885.558z" fill="#6E6EDB"></path><path d="M338.06 73.186l-1.697 2.784M339.187 74.643l-1.447 2.594M336.563 72.128l-1.676 2.754" stroke="#FFB6B2" stroke-width="0.49" stroke-linecap="round" stroke-linejoin="round"></path><path d="M334.078 90.638a9.163 9.163 0 003.513.549 11.979 11.979 0 00-2.505-3.463c-.588 1.567-1.008 2.914-1.008 2.914z" fill="#49439C"></path><path d="M324.011 90.189a16.354 16.354 0 0011.115 6.226M311.598 87.096l7.683 18.878s2.993 5.089 5.508 1.207a128.728 128.728 0 004.989-12.163" stroke="#49439C" stroke-width="0.49" stroke-linecap="round" stroke-linejoin="round"></path><path d="M321.436 94.59l2.066 5.337" stroke="#49439C" stroke-width="0.5" stroke-linecap="round" stroke-linejoin="round"></path><path d="M282.981 111.851a.25.25 0 01-.25-.239l-.529-16.963a.25.25 0 01.499-.02l.529 17.023a.238.238 0 01-.239.249l-.01-.05z" fill="#49439C"></path><path opacity="0.1" d="M295.763 130.55s4.859 2.275 6.376 1.996c.059 2.604.069 3.123.069 3.123s-4.859-2.674-6.445-5.119z" fill="#000"></path><path d="M282.981 109.766l-13.99 2.624 4.351 22.81 10.138-2.265-.499-23.169z" fill="#A8AAAD"></path><path d="M273.641 124.823a214.67 214.67 0 00-.319-7.983c-.11-1.746-.21-3.502-.15-5.248l-4.181.778 4.351 22.81h.229c.07-3.472.15-6.905.07-10.357z" fill="#000" opacity="0.1"></path><path d="M283.21 134.182a.349.349 0 01-.219.469c-.928.299-3.223 1.168-3.223 1.168s-1.148.997-2.425-.908c-1.277-1.906-1.996-3.283-.549-3.473.489-.299.729-.539 1.337 0 .24-.419.729-1.147 1.397-.728.24-.24.789-.998 1.826.189a15.426 15.426 0 011.856 3.283z" fill="#FF8680"></path><path d="M281.384 133.953a.25.25 0 01-.209-.12l-1.826-2.994a.238.238 0 01.04-.289.25.25 0 01.339.08l1.836 2.993a.25.25 0 01-.08.34.259.259 0 01-.1-.01zM279.718 134.092a.25.25 0 01-.22-.119l-1.506-2.525a.238.238 0 01.079-.339.25.25 0 01.34.09l1.516 2.514c.066.12.032.27-.079.349a.295.295 0 01-.13.03zM278.131 134.432a.27.27 0 01-.229-.14l-1.337-2.744a.24.24 0 01.12-.329.249.249 0 01.329.109l1.337 2.744a.26.26 0 01-.11.34.218.218 0 01-.11.02z" fill="#FFB6B2"></path><path d="M304.064 87.096l10.108 22.809.25.549" stroke="#49439C" stroke-width="0.49" stroke-linecap="round" stroke-linejoin="round"></path><path d="M317.824 136.427l11.026 26.302c.469 1.372.738 2.803.798 4.251.13 2.525 1.068 33.596 1.068 33.596M334.967 200.985h-19.398M287.79 200.287h16.185M298.846 149.279l1.467 51.008" stroke="#F58220" stroke-width="0.5" stroke-linecap="round" stroke-linejoin="round"></path><path d="M283.28 115.144a.246.246 0 01-.179-.066.248.248 0 01.169-.433l30.882-1.058a.27.27 0 01.27.25.25.25 0 01-.25.249l-30.882 1.058h-.01z" fill="#49439C"></path><path d="M311.598 93.78s2.275-2.284 3.991-2.284M313.603 97.872s1.896-2.355 3.852-1.926" stroke="#49439C" stroke-width="0.49" stroke-linecap="round" stroke-linejoin="round"></path><path d="M279.209 110.414a.247.247 0 01-.239-.259l.478-13.75a.25.25 0 01.26-.24.24.24 0 01.239.25l-.479 13.76a.245.245 0 01-.08.173.246.246 0 01-.179.066z" fill="#49439C"></path><path d="M288.868 70.402l13.48 1.477.319 2.185-13.64.05-.159-3.712z" fill="#6E6EDB"></path><path d="M326.765 85.47s4.919 6.036 10.826 5.727" stroke="#49439C" stroke-width="0.49" stroke-linecap="round" stroke-linejoin="round"></path><path fill="#ECF3FF" d="M1216.99 62.44h41.18v29.066h-41.18z"></path><path opacity="0.55" fill="#fff" d="M1170.2 46.395h69.038v37.368H1170.2z"></path><path d="M1239.41 46.445l-.17 37.318h-22.26" stroke="#ECF3FF" stroke-width="0.88" stroke-linecap="round" stroke-linejoin="round"></path><path fill="#ECF3FF" d="M1179.59 50.027h50.26v25.584h-50.26z"></path><path d="M1200.89 50.027h29v25.584h-3.7l-25.3-25.584z" fill="#B2D4FF"></path><path d="M1180.75 50.127V75.67c0-.16-1.3 0-1.3 0s-.22-25.943 0-25.704h1.32" fill="#58A3FF"></path><path fill="#fff" d="M1184.82 58.907h26.781v2.435h-26.781zM1184.82 64.655h26.781v2.435h-26.781z"></path><circle cx="1220.51" cy="62.21" r="6.037" fill="#fff"></circle><path d="M126.105 137.655s-1.297 2.624.539 6.495a7.417 7.417 0 004.809 2.884c1.687.229 10.847-.18 10.847-.18l-1.547-9.978-14.648.779z" fill="#FFB6B2"></path><path d="M78.08 95.27a.85.85 0 01.836-.864l38.925-.639a.85.85 0 01.864.836l.198 12.059a.85.85 0 01-.836.863l-38.926.639a.85.85 0 01-.864-.836L78.08 95.27z" fill="#fff"></path><path d="M78.08 95.27a.85.85 0 01.836-.864l38.925-.639a.85.85 0 01.864.836l.198 12.059a.85.85 0 01-.836.863l-38.926.639a.85.85 0 01-.864-.836L78.08 95.27z" fill="#fff"></path><path fill-rule="evenodd" clip-rule="evenodd" d="M78.919 94.4h.34l.229 13.759h-.34a.847.847 0 01-.868-.828l-.19-12.063a.829.829 0 01.829-.868z" fill="#BAD8FF"></path><circle cx="85.634" cy="104.018" r="1.058" fill="#248AFF"></circle><path fill-rule="evenodd" clip-rule="evenodd" d="M88.807 102.911l12.483-.2a1.047 1.047 0 011.077.998 1.067 1.067 0 01-.997 1.078l-12.493.199a1.047 1.047 0 01-1.068-.998 1.047 1.047 0 01.998-1.077z" fill="#E5E9EC"></path><path d="M78.096 77.018a.85.85 0 01.833-.867l38.931-.778a.85.85 0 01.867.832l.241 12.06a.85.85 0 01-.833.867l-38.93.78a.85.85 0 01-.868-.834l-.24-12.06z" fill="#fff"></path><path d="M78.096 77.018a.85.85 0 01.833-.867l38.931-.778a.85.85 0 01.867.832l.241 12.06a.85.85 0 01-.833.867l-38.93.78a.85.85 0 01-.868-.834l-.24-12.06z" fill="#fff"></path><path fill-rule="evenodd" clip-rule="evenodd" d="M78.62 76.41h.429l.22 13.759h-.44a.858.858 0 01-.858-.838l-.14-12.064a.848.848 0 01.788-.858z" fill="#BAD8FF"></path><circle cx="85.764" cy="86.028" r="1.058" fill="#248AFF"></circle><path fill-rule="evenodd" clip-rule="evenodd" d="M88.927 85.02l13.54-.23a1.058 1.058 0 011.078.998 1.058 1.058 0 01-.998 1.068l-13.55.23a1.068 1.068 0 01-1.078-.998c-.006-.57.44-1.041 1.008-1.068z" fill="#E5E9EC"></path><path d="M83.52 78.908l21.6-.354.049 2.983-21.6.354-.049-2.983zM84.182 96.275l21.603-.432.06 2.983-21.603.433-.06-2.984z" fill="#BAD8FF"></path><path d="M126.295 209.167l.09 4.99s0 3.252-2.535 3.592c-1.287.129-2.684.778-2.205 2.883 4.221.3 15.905.33 15.825.22-.08-.11.14-11.325.14-11.325l-11.315-.36z" fill="#CC4E00"></path><path d="M146.461 209.826l.179 10.906-10.826.18 1.287-11.395 9.36.309z" fill="#CC4E00"></path><path clip-rule="evenodd" d="M124.648 217.529s-3.143.659-2.913-1.337c.13-.738 1.407-1.706 2.913 1.337z" stroke="#F58220" stroke-width="0.32" stroke-linecap="round" stroke-linejoin="round"></path><path clip-rule="evenodd" d="M124.648 217.529c0 .06-2.075-3.083-.109-3.642.369-.09 2.185-.19.109 3.642z" stroke="#F58220" stroke-width="0.32" stroke-linecap="round" stroke-linejoin="round"></path><path opacity="0.1" d="M137.47 220.862l.14-11.325 2.016 11.315-2.156.01z" fill="#000"></path><path d="M144.784 102.611s-5.158 1.278-6.984-3.612a8.539 8.539 0 01.818-7.683 7.293 7.293 0 015.388-3.282 7.813 7.813 0 018.342 6.106 111.17 111.17 0 011.935 12.612l-9.708 2.455.209-6.596z" fill="#FFB6B2"></path><path d="M140.843 136.846l-14.887.818s.299-7.752 4.709-18.469a20.355 20.355 0 0113.022-11.774 57.181 57.181 0 0111.604-1.946 9.6 9.6 0 018.102 3.303c2.595 3.073 5.209 8.88 5.658 19.866.09 5.149-.339 13.76-.339 13.76l-26.941.998-.928-6.556z" fill="#F4C6EF"></path><path opacity="0.05" d="M163.423 108.778a9.373 9.373 0 00-5.478-3.143c3.992 5.857 5.738 12.582 6.476 19.826.6 5.673.827 11.38.679 17.083l3.642-.14s.429-8.611.339-13.76c-.449-10.986-3.063-16.793-5.658-19.866z" fill="#000"></path><path d="M147.748 139.81a.31.31 0 10-.001.619.31.31 0 00.001-.619zM152.088 125.262a.31.31 0 000 .608.308.308 0 000-.608zM159.462 133.414a.31.31 0 000 .609.31.31 0 000-.609zM165.479 121.64a.31.31 0 10-.001.619.31.31 0 00.001-.619zM156.728 119.794a.294.294 0 00-.08-.14h-.06a.329.329 0 00-.159 0h-.15a.27.27 0 00-.12 0 .21.21 0 00-.1.06.26.26 0 00-.059.1.166.166 0 000 .12v.089c.013.051.04.096.079.13h.06a.31.31 0 00.16 0h.15c.039.009.08.009.119 0l.1-.07a.206.206 0 00.06-.1.163.163 0 000-.119v-.07zM166.846 115.413a.31.31 0 100 .62.31.31 0 000-.62zM148.835 107.281a.31.31 0 100 .619.31.31 0 000-.619zM147.937 115.423a.31.31 0 100 .619.31.31 0 000-.619zM143.537 126.29a.308.308 0 000 .608.31.31 0 000-.608zM138.348 116.032a.31.31 0 000 .609.31.31 0 000-.609zM133.389 128.964a.309.309 0 100 .618.31.31 0 100-.618zM130.037 123.256a.31.31 0 000 .619.31.31 0 000-.619zM126.973 134.681a.31.31 0 100 .618.31.31 0 000-.618zM149.823 131.059a.31.31 0 100 .618.31.31 0 000-.618zM156.479 140.528a.31.31 0 000 .619.31.31 0 000-.619zM159.332 125.731a.309.309 0 100 .618.31.31 0 100-.618zM141.052 110.005a.282.282 0 00-.079-.139h-.06a.29.29 0 00-.16 0h-.269a.238.238 0 00-.16.159.244.244 0 000 .12v.08a.32.32 0 00.08.139h.06c.053.01.107.01.159 0h.15a.166.166 0 00.12 0l.1-.069a.209.209 0 00.059-.1.166.166 0 000-.12v-.07zM164.95 125.641a.31.31 0 000 .609.31.31 0 000-.609zM167.444 134.541a.206.206 0 00-.059-.099.27.27 0 00-.1-.06.166.166 0 00-.12 0h-.09a.257.257 0 00-.129.08l-.05.059a.29.29 0 000 .16v.15a.27.27 0 000 .12.36.36 0 00.069.099.21.21 0 00.1.06c.04.01.081.01.12 0h.08a.392.392 0 00.14-.08v-.06a.329.329 0 000-.159v-.15a.266.266 0 00.039-.12zM168.283 130.46a.31.31 0 000 .619.31.31 0 000-.619zM161.707 117.419a.31.31 0 100 .618.31.31 0 000-.618zM155.94 107.76a.31.31 0 000 .619.31.31 0 000-.619zM141.811 143.422l.369 4.859-17.721 3.163s-5.987-.189-5.279 10.118c.709 10.307 4.221 47.506 4.221 47.506l34.983 1.147-9.309-43.415s24.127 2.994 19.667-24.396l-26.931 1.018z" fill="#C72C91"></path><path opacity="0.05" d="M168.742 142.404l-9.639.359a34.839 34.839 0 01-4.939 12.583c-2.684 4.121-6.486 8.98-10.976 11.395 2.804 7.982 3.213 16.453 3.572 24.845.259 5.897.249 12.333 1.576 18.26l10.038.329-9.309-43.414s24.137 3.083 19.677-24.357z" fill="#000"></path><path d="M140.204 167.808l30.234-.499a15.374 15.374 0 0014.767-11.973c0-.11 0-.22.08-.34 3.223-12.662 3.722-17.252 3.722-17.252s2.375-12.971-4.52-13.4l-15.646.259s-6.126.1-7.154 7.564c-1.287 7.074-2.464 21.472-7.234 28.707a9.24 9.24 0 01-6.266 3.991 61.511 61.511 0 01-8.302.868c.061.698.168 1.391.319 2.075z" fill="#314351"></path><path d="M51.368 173.83l3.193-.052.645 39.298-3.193.053-.645-39.299z" fill="#A8AAAD"></path><path d="M46.894 213.094l15.276-.306a3.523 3.523 0 013.593 3.452l.017.848-22.321.447-.017-.848a3.523 3.523 0 013.452-3.593z" fill="#314351"></path><path d="M161.467 167.464l3.193-.053.78 47.57-3.192.052-.781-47.569z" fill="#A8AAAD"></path><path d="M156.351 215.123l15.235-.25a3.522 3.522 0 013.579 3.464l.014.838-22.278.365-.014-.848a3.522 3.522 0 013.464-3.569z" fill="#314351"></path><path opacity="0.1" d="M144.784 102.612a18.445 18.445 0 002.764-1.886 26.669 26.669 0 01-2.804 3.492l.04-1.606z" fill="#000"></path><path d="M121.645 220.642s12.972.519 15.825.22l.14-11.325M146.461 209.826l.179 10.906-9.17.13" stroke="#F58220" stroke-width="0.32" stroke-linecap="round" stroke-linejoin="round"></path><path d="M123.401 209.068l34.983 1.147-9.13-42.556" stroke="#F4C6EF" stroke-width="0.63"></path><path d="M46.4 111.971l-.23-14.349s4.99-9.678 11.545-3.642c1.138 2.176 1.886 3.852 2.285 4.82.418.96.639 1.996.649 3.043v.439c-.1 1.846-1.078 3.363-2.794 3.662a6.301 6.301 0 01-1.995 0c-.06 2.904.2 5.917.2 5.917s.737 11.046-4.391 10.976c-2.076-.2-5.1-1.048-5.269-10.866z" fill="#CC8672"></path><path d="M46.28 104.188c0-.12 2.575-2.993 2.575-2.993s.928-.719-.489-1.108a1.317 1.317 0 01-.499-1.996c.23-.498.659-.728 1.866-.289.529.17.758 0 .918-.998.16-.998.609-2.325 2.993-2.993 1.457-.43 2.545-.779 4.131.13.35-2.824.998-6.835-2.325-7.773-1.167-.32-5.148.14-5.657 5.128-1.048.08-3.742-.21-2.804 4.151-.748.3-2.914 1.257-.748 3.762l.04 4.979z" fill="#000"></path><path d="M77.282 130.101l2.146-4.749a4.6 4.6 0 000-3.622c-.878-2.365-1.377-4.59.379-2.874.908.828.998 1.806 2.445.868 1.446-1.207 6.136-4.7 6.136-4.7s1.437-1.357.918.888c.629-.08 1.397-.159.858 1.238.42.209.669.059.21 1.327.648.06.918-.16.29 1.456-.63 1.617-2.735 5.628-2.805 5.838-.07.209-1.307 5.937-1.307 5.937l-9.27-1.607z" fill="#CC8672"></path><path d="M81.693 166.192l-3.732 5.069s-1.127 2.195-5.837 2.195l-35.732.589a7.744 7.744 0 01-6.775-5.329c-2.055-5.308-11.974-32.578-11.974-32.578s-4.23-8.98 5.08-9.13l18.449-.299 14.448 39.104 26.073.379z" fill="#314351"></path><path d="M46.37 110.015l-7.453 2.066a14.787 14.787 0 00-10.577 10.836l-.15.758a113.953 113.953 0 00-1.347 18.739s-.588 8.451 8.402 8.491c-.5 3.493-.818 6.436-.818 6.436l36.61-6.106s3.452 2.504 7.263 1.696a6.655 6.655 0 004.99-5.059c2.993-12.423 3.372-16.534 3.372-16.534l-9.21-1.676-1.746 3.442-6.536-16.334s-2.634-7.383-13.22-6.186l-.36 4.63-.29 2.584-8.93-7.783z" fill="#FFE5B2"></path><path d="M84.097 120.622l5.219-4.71M85.375 121.899l4.8-4.749M90.384 118.477l-3.602 4.121" stroke="#FFB6B2" stroke-width="0.32" stroke-linecap="round" stroke-linejoin="round"></path><path d="M71.056 151.235c-1.856-1.996-.579-5.369-.579-5.369l6.985-16.204 9.21 1.676M63.333 132.336c.21 0 6.735 17.043 6.735 17.043" stroke="#F58220" stroke-width="0.32" stroke-linecap="round" stroke-linejoin="round"></path><path d="M52.607 143.212c.13 0 3.911.22 3.911.22s.998.269 1.736-.998c.739-1.267 1.996-1.996 1.996-.998s-.629 2.894.788 2.674c1.677-.349 3.991-.688 3.991-.688s1.387-.18.57.998a.857.857 0 010 1.357c.169.389.787.698-.11 1.427.209.449.997.658-.17 1.327l-12.692 2.364-.02-7.683z" fill="#CC8672"></path><path d="M35.265 150.905c5.818.403 11.657.377 17.471-.079" stroke="#F58220" stroke-width="0.32" stroke-linecap="round" stroke-linejoin="round"></path><path d="M61.936 144.959l3.752-.609" stroke="#FFB6B2" stroke-width="0.32" stroke-linecap="round" stroke-linejoin="round"></path><path d="M102.916 207.89v1.497s-.489.489 0 1.367c.215.73.339 1.484.369 2.245 0 0 10.767.07 10.767-.13 0-.199.259-5.168.259-5.168l-11.395.189z" fill="#CCF"></path><path d="M65.708 145.707l-3.722.529" stroke="#FFB6B2" stroke-width="0.32" stroke-linecap="round" stroke-linejoin="round"></path><path d="M103.315 212.979l.2 5.558s-.2 1.287 1.656 1.227c1.856-.06 12.503-.489 12.503-.489s2.594-.149.1-1.546c-2.495-1.397-3.732-1.806-3.732-1.806l.06-3.054-10.787.11z" fill="#314351"></path><path d="M98.446 180.321l2.774 20.265s.728 3.562-.599 4.59c-.758.898-1.177 2.734 2.844 2.704 4.021-.03 12.493-.209 12.493-.209s2.684-.23.618-3.652c-.698-1.327-.369-1.667-.519-3.902l-1.097-38.196s-.539-13.221-11.974-13.091c-11.535.14-31.241 1.676-31.241 1.676l23.219 6.885 3.482 22.93z" fill="#09366D"></path><path d="M65.598 147.134l-3.512.399" stroke="#FFB6B2" stroke-width="0.32" stroke-linecap="round" stroke-linejoin="round"></path><path d="M75.187 206.473c.217.552.15 1.174-.18 1.667-.528.688-.668 1.077-.269 1.656a7.996 7.996 0 01-.19 1.557l10.727 1.227 1.167-4.77-11.255-1.337z" fill="#CCF"></path><path d="M37.13 156.892s1.378 13.062 14.968 12.363c14.129-.838 31.48-2.285 31.48-2.285l-7.353 32.549s-.549 2.544-2.096 3.243c-1.546.698-3.562 2.873.998 3.711.42.12 12.473 1.467 12.473 1.467s4.87.389 3.432-3.542c-.638-1.547-.638-1.547.06-3.333l12.253-34.923c.6-1.661.966-3.397 1.088-5.159.229-3.592-.489-8.561-5.867-9.978a10.851 10.851 0 00-2.475-.289c-13.6-.13-25.095.439-25.095.439l-33.865 5.737z" fill="#09366D"></path><path d="M34.447 157.341s-.789 6.237 2.993 7.514c2.205.439 3.233-1.118 5.199-3.862 1.396-1.796 5.088-4.051 11.045-2.714 2.684.24 7.165-1.417 10.926-3.991a31.177 31.177 0 017.184-2.594l-.708-.439-36.64 6.086z" fill="#F58220"></path><path opacity="0.1" d="M80.196 150.905l15.965-.109a7.722 7.722 0 018.142 6.465 20.185 20.185 0 01-.998 9.28l-4.84 13.78.31 2.265s5.768-13.301 6.985-21.762c.16-3.642.06-10.417-8.112-10.976-5.618-.26-24.606.559-24.606.559l1.327.658 5.827-.16z" fill="#000"></path><path d="M99.913 151.504s5.987 1.597 4.42 11.046a42.671 42.671 0 01-2.235 7.374l-3.652 10.407" stroke="#6E6EDB" stroke-width="0.32" stroke-linecap="round" stroke-linejoin="round"></path><path d="M74.549 211.373l-.61 5.527s-.378 1.248 1.468 1.457c1.846.21 12.402 1.287 12.402 1.287s2.595.22.32-1.516c-2.275-1.736-3.433-2.325-3.433-2.325l.539-3.223-10.686-1.207z" fill="#314351"></path><path opacity="0.1" d="M83.599 166.97l8.451-.14-8.85 1.916.399-1.776z" fill="#000"></path><path d="M83.599 166.97l8.451-.14M101.529 203.959l13.231-.429M102.776 181.319c-.079.229 2.096 22.48 2.096 22.48M75.277 202.023c.18 0 14.039 1.916 14.039 1.916M85.903 172.548l-6.485 30.034" stroke="#6E6EDB" stroke-width="0.32" stroke-linecap="round" stroke-linejoin="round"></path><path opacity="0.1" d="M55.77 105.924a7.988 7.988 0 01-2.764-.648 23.318 23.318 0 012.764 2.165v-1.517z" fill="#000"></path><path clip-rule="evenodd" d="M55.33 117.798l-1.596 1.906-8.86-7.304 1.496-2.385 8.96 7.783v0zM55.98 110.584l-.65 7.214 2.176.948.529-8.292-2.056.13v0z" stroke="#F58220" stroke-width="0.32" stroke-linecap="round" stroke-linejoin="round"></path><path d="M76.534 131.867l9.769 2.006M49.883 143.003l.09 5.368M61.278 152.821l-26.831 4.52.508-4.141" stroke="#F58220" stroke-width="0.32" stroke-linecap="round" stroke-linejoin="round"></path><path d="M8.932 150.301a1.26 1.26 0 011.239-1.28l142.472-2.338a1.26 1.26 0 011.281 1.239l.034 2.07a1.26 1.26 0 01-1.24 1.28L10.246 153.61a1.26 1.26 0 01-1.28-1.239l-.034-2.07z" fill="#A8AAAD"></path><path d="M141.871 209.437l-7.055-48.983" stroke="#F4C6EF" stroke-width="0.63"></path><path opacity="0.1" d="M137.42 94.34a28.243 28.243 0 004.441-5.359c-.18 0-1.088-.379-1.337 0a44.11 44.11 0 00-2.824 4.141c-.14.51-.28 1.218-.28 1.218z" fill="#000"></path><path d="M91.272 147.692l-12.253.2-.04-2.544 16.913-.28.04 2.545-4.66.079z" fill="#B2D4FF"></path><path d="M91.272 147.692l-12.253.2-.04-2.544 16.913-.28.04 2.545-4.66.079z" fill="#AAD0F9"></path><path opacity="0.1" d="M91.272 147.692l-12.253.2-.04-2.544 16.913-.28.04 2.545-4.66.079z" fill="#000"></path><path d="M91.451 147.154l5.917-17.961c.052-.16.201-.269.37-.269l28.287-.469a.398.398 0 01.38.548l-7.404 18.021a.419.419 0 01-.369.249l-26.831.409a.396.396 0 01-.35-.528z" fill="#AAD0F9"></path><ellipse cx="109.214" cy="138.046" rx="1.736" ry="1.407" transform="rotate(-84.88 109.214 138.046)" fill="#fff"></ellipse><path d="M37.54 141.656c.19 0 15.067 1.626 15.067 1.626l.09 5.039" stroke="#F58220" stroke-width="0.32" stroke-linecap="round" stroke-linejoin="round"></path><path opacity="0.2" d="M139.476 127.876l-2.475 9.21 3.842-.24-1.367-8.97z" fill="#000"></path><path d="M139.236 126.26l2.575 17.162" stroke="#B22485" stroke-width="0.31" stroke-linecap="round" stroke-linejoin="round"></path><ellipse cx="54.299" cy="98.605" rx="2.295" ry="2.365" transform="rotate(-6.82 54.3 98.605)" stroke="#000" stroke-width="0.31"></ellipse><ellipse cx="59.257" cy="97.556" rx="1.567" ry="2.385" transform="rotate(-6.82 59.257 97.556)" stroke="#000" stroke-width="0.31"></ellipse><path d="M51.948 98.37l-2.075-.847" stroke="#000" stroke-width="0.31"></path><path d="M57.706 93.82c.15 0 1.496-1.147.838-4.709" stroke="#314351" stroke-width="0.15" stroke-linecap="round" stroke-linejoin="round"></path><path d="M59.79 97.762s-.867-.668-1.346.519M54.682 98.74s-.36-.838-1.477-.23" stroke="#000" stroke-width="0.3" stroke-linecap="round" stroke-linejoin="round"></path><path d="M55.141 101.614a1.825 1.825 0 002.235 1.905" stroke="#fff" stroke-width="0.22" stroke-linecap="round" stroke-linejoin="round"></path><path d="M57.346 99.698l.669 1.437" stroke="#FFB6B2" stroke-width="0.31" stroke-linecap="round" stroke-linejoin="round"></path><path d="M146.53 91.815a1.676 1.676 0 00.998-1.686" stroke="#fff" stroke-width="0.31" stroke-linecap="round" stroke-linejoin="round"></path><path d="M137.46 96.794l-.519 1.746a.408.408 0 00.34.549l.768.09-.589-2.385z" fill="#FFB6B2"></path><path d="M139.356 95.946s0-.38.14-.429c.14-.05.279 0 .399.41.12.408.08.588-.09.668-.169.08-.349-.08-.449-.649zM137.59 93.631a5.547 5.547 0 012.215-2.534c.998 1.776 3.153 5.727 5.229 5.248a2.244 2.244 0 012.444-.868 1.597 1.597 0 01.369 2.644 1.988 1.988 0 01-.698.39 5.269 5.269 0 002.764 4.41l3.991-.12-.998-7.444s0-.678-.05-1.357a8.416 8.416 0 00-1.606-4.76 7.214 7.214 0 00-6.695-2.893 7.543 7.543 0 00-6.965 7.284z" fill="#000"></path><path d="M144.884 107.94l-.688-2.435 11.035-.768-.199 1.826-10.148 1.377z" fill="#F4C6EF"></path><path d="M146.041 96.395s1.108-.998 1.278.5" stroke="#FF8680" stroke-width="0.31" stroke-linecap="round" stroke-linejoin="round"></path><circle cx="147.079" cy="99.089" r="1.167" fill="#C72C91"></circle><path d="M138.907 94.19s.06-.21.399-.25h.16l.619.11a.46.46 0 01.379.51c0 .139-.16.249-.439.209a6.573 6.573 0 01-.898-.19.33.33 0 01-.21-.19.24.24 0 01-.01-.199z" fill="#000"></path><path d="M137.111 101.743l2.694-2.634a2.434 2.434 0 01-.309 2.245 1.269 1.269 0 01-.339.31 1.996 1.996 0 01-2.046.079z" fill="#fff"></path><path d="M165.818 103.609c-3.991-.658-5.927-3.322-9.23-6.865-.918-1.357-4.789-6.525-5.318-7.523-2.215 3.233.329 9.489-2.515 12.243.839.798 2.126 2.864 2.565 8.082.509 4.6-.17 10.777 5.637 13.331a10.204 10.204 0 0013.74-6.446c.15-.499.28-.998.399-1.616.659-3.962-.658-9.899-5.278-11.206zM970.421 76.2s3.333.838 2.924 5.427c0 .829 1.666 2.086 4.589 2.914 1.667.42 2.914 1.666 1.667 3.752a38.286 38.286 0 00-10.427 0l-3.293-.41-1.247-7.513 5.787-4.17z" fill="#000"></path><path d="M971.249 77.177l-.04 4.62" stroke="#C72C91" stroke-width="0.41" stroke-linecap="round" stroke-linejoin="round"></path><path fill-rule="evenodd" clip-rule="evenodd" d="M1038.08 218.826l4.13-.1 20.09-57.074-3.5-1.048-20.72 58.222z" fill="#7DCC7A"></path><path fill-rule="evenodd" clip-rule="evenodd" d="M1077 218.238l3.86.159-20.98-58.152-3.49 1.078 20.61 56.915z" fill="#7DCC7A"></path><path d="M961.111 193.542l2.046 14.837 6.456-.489.519-15.286-9.021.938zM970.521 192.853l2.105 15.237 6.416-.419.738-15.267-9.259.449z" fill="#FFB6B2"></path><path d="M972.207 206.823l7.074-.469.29 7.184s0 .688 1.357 1.556c1.357.869 5.827 3.652.688 3.652h-9.11l-.299-11.923z" fill="#CC4E00"></path><path d="M972.417 214.366s3.632-.738 4.37 3.682M979.451 210.564l-1.327.829M979.521 212.251l-1.108.828M972.486 218.018h11.545" stroke="#F58220" stroke-width="0.41" stroke-linecap="round" stroke-linejoin="round"></path><path opacity="0.1" d="M972.207 206.823s1.607 10.706 4.989 11.923h-4.68l-.309-11.923z" fill="#000"></path><path d="M962.748 207.142l6.885-.459.279 6.985s0 .668 1.327 1.506 5.668 3.562.669 3.562h-8.871l-.289-11.594z" fill="#CC4E00"></path><path d="M962.947 214.456s3.543-.729 4.261 3.582M969.792 210.784l-1.277.808M969.862 212.43l-1.077.809M963.017 218.038h11.236" stroke="#F58220" stroke-width="0.41" stroke-linecap="round" stroke-linejoin="round"></path><path d="M953.338 123.735s-5.328 12.034-2.554 29.455c2.994 17.961 9.539 45.75 9.539 45.75l20.685-.559 5.338-44.472a45.238 45.238 0 000-10.896c-.748-6.177-2.564-15.137-6.985-19.517-8.78-.749-26.023.239-26.023.239z" fill="#6E6EDB"></path><path d="M949.267 98.002a9.59 9.59 0 00-7.114 5.188 6.985 6.985 0 001.108 7.983 6.157 6.157 0 005.737 1.796c.415-4.978.505-9.978.269-14.967z" fill="#000"></path><path d="M958.737 87.854l1.995-13.201s-2.404-.798-1.197-3.991c.399-.4 2.794-1.288 3.592 1.516a8.982 8.982 0 002.205-4.11s7.194-.4 7.983 3.99c0 3.204 0 7.604-5.608 9.21.808 4.8 1.207 5.199 1.207 5.199s4.051 2.694 3.712 6.576a4.39 4.39 0 01-5.398 3.801c-3.343-.788-7.793-2.993-8.491-8.99z" fill="#FFB6B2"></path><path d="M965.582 69.564s4.989 3.283 7.763 2.884c.399-1.597-1.407-8.332-6.676-9.18-3.991-.4-9.928-.31-12.313 6.446-.738 2.205.419 3.732-1.995 6.246-.357.355-.76.66-1.198.908-1.876 1.088-3.871 4.14-2.414 8.511.598 3.283.538 3.752-.36 4.31a5.626 5.626 0 00-1.995 1.997c-.669 1.247-.818 2.284.668 4.07l11.834-7.553 2.654-13.45a1.726 1.726 0 01-1.656-2.076c.06-1.087 1.407-2.085 2.125-1.646.589.26 1.016.787 1.148 1.417a14.676 14.676 0 002.415-2.884z" fill="#000"></path><path d="M944.139 112.071l11.894-2.664s-.809 14.817-2.804 16.014c13.211-.798 26.422-.798 26.422-.798l2.454-12.552 16.165 2.744s-6.805-17.622-5.987-17.222c.818.399-3.512-3.543-6.795-6.446a20.27 20.27 0 01-1.257-1.198c-2.874-2.993-7.873-5.308-15.037-3.322 2.394 3.203 2.873 5.987.069 7.164-3.202 1.606-8.271-2.295-10.277-5.897-3.203 0-14.428.539-14.827 23.768" fill="#F4C6EF"></path><path d="M948.12 108.798c-.09-4.75.519-9.868 2.784-14.12a25.462 25.462 0 014.191-5.178c.409-.429.868-.938 1.387-1.407-4.511.779-11.974 4.65-12.343 23.569v.409l4.091-.918c-.06-.779-.1-1.557-.11-2.355z" fill="#000" opacity="0.1"></path><path fill-rule="evenodd" clip-rule="evenodd" d="M954.157 125.421l25.853-.828.419-4.181-25.823 1.707-.449 3.302z" fill="#C72C91"></path><path d="M963.017 198.78l-2.604.06s-7.094-31.291-8.342-37.547c-1.257-4.989-2.754-18.42-1.995-22.561.249-3.682 1.995-15.396 5.338-17.481 2.924.419 7.923 1.666 7.923 1.666s-11.256 3.762-7.085 33.796c4.58 30.024 6.765 42.067 6.765 42.067z" fill="#000" opacity="0.1"></path><path d="M956.452 101.025v7.503" stroke="#C72C91" stroke-width="0.41" stroke-linecap="round" stroke-linejoin="round"></path><path d="M961.511 74.882L959.894 89.4a9.654 9.654 0 01-.998-1.406c.409-1.747 2.615-13.112 2.615-13.112zM956.641 103.18l2.814 18.53-3.173.239.359-18.769zM969.174 86.647s4.58 8.88-5.638 6.106c2.205 1.327 4.989 2.305 7.055.11.489-.679 1.526-2.225-1.417-6.216z" fill="#000" opacity="0.1"></path><path d="M969.174 86.647s6.815-2.465 12.582 1.267c.689.389 10.776 9.579 10.776 9.579s-.828-.27-.209 1.117c-5.847-5.148-12.273-14.747-22.521-11.055-.309-.51-.628-.908-.628-.908z" fill="#000" opacity="0.1"></path><path fill-rule="evenodd" clip-rule="evenodd" d="M1042.71 156.842s-11.03 8.282-2.29 8.282h31.48a13.093 13.093 0 0012.76-9.868c.44-1.895.72-3.824.83-5.767.72-11.914.88-25.804.91-31.232a4.801 4.801 0 00-2.91-4.51c-1.8-.738-3.93-.259-4.67 5.159-1.38 10.576 2.3 29.435-8.28 34.035-8.31 3.213-27.63 3.213-27.83 3.901z" fill="#7DCC7A"></path><path d="M1081.45 111.811a3.597 3.597 0 00-2.9-2.116 3.576 3.576 0 00-3.28 1.458 3.176 3.176 0 00-1 3.073 59.249 59.249 0 01-.79 26.292 3.01 3.01 0 001 3.203 14.641 14.641 0 01-3.08 3.512c-4.42 3.712-10.23 5.339-15.63 7.085l-9.21 2.993c-2.82.908-5.67 2.046-8.64 2.345-3.99.389-4.12 6.446-.38 6.466-.08 1.996 1.49 4.061 3.92 3.223 12.65-4.37 28.21-7.723 37.13-18.529a26.82 26.82 0 006.09-17.612c.05-7.144-.48-14.777-3.23-21.393z" fill="#000" opacity="0.1"></path><path fill-rule="evenodd" clip-rule="evenodd" d="M1007.93 116.581h-22.312a2.076 2.076 0 01-2.066-2.076V90.708c0-1.141.925-2.066 2.066-2.066h23.782c1.14 0 2.06.925 2.06 2.066v23.777a2.064 2.064 0 01-2.06 2.076h-1.47" fill="#fff"></path><path d="M1007.93 116.581h-22.312a2.076 2.076 0 01-2.066-2.076V90.708c0-1.141.925-2.066 2.066-2.066h23.782c1.14 0 2.06.925 2.06 2.066v23.777a2.064 2.064 0 01-2.06 2.076h-1.47" stroke="#A8AAAD" stroke-width="0.25" stroke-linecap="round" stroke-linejoin="round"></path><path opacity="0.8" fill-rule="evenodd" clip-rule="evenodd" d="M1009.53 116.581V88.642c1.06 0 1.93.867 1.93 1.936v24.007c.02.524-.18 1.032-.54 1.408-.37.376-.87.588-1.39.588z" fill="#A8AAAD"></path><rect x="978.194" y="116.331" width="28.418" height="26.402" rx="2.45" fill="#fff"></rect><rect x="978.194" y="116.331" width="28.418" height="26.402" rx="2.45" stroke="#A8AAAD" stroke-width="0.25" stroke-linecap="round" stroke-linejoin="round"></rect><path d="M1058.17 105.326l-3.64.818s-1.26 9.18 7.16 8.421c2.78-.838 8.52-6.725 9.36-10.277-2.23-.21-12.68.369-12.68.369l-.2.669z" fill="#FF8880"></path><path d="M1082.14 138.712s1.48 12.333-16.83 17.961c-18.12 5.797-25.01 7.613-25.01 7.613l6.89 41.319-11.33 2.076-8.98-30.533-6.81 23.039-11.11-2.993 4.22-41.17c.2-2.127.99-4.156 2.28-5.857 1.85-2.375 5.28-5.228 11.6-7.134 14.19-5.329 17.85-5.987 17.85-5.987l37.23 1.666z" fill="#CC4E00"></path><path d="M1055.94 105.824s-.74 6.127 2.79 6.985c.66.143 1.35.094 1.99-.14 2.32-.768 5.88-3.133 8.59-8.631 2.69 0 9.98 1.996 11.5 11.495 0 0 5.99 29.086-3.27 30.363-2.27.38-23.11.38-23.11.38s2.76-.07.81-7.274l-20.43-1.996c.33-2.265.36-4.562.1-6.835 2.47-.15 4.66-.369 5.7-.479a1.658 1.658 0 001.31-.948c.24-.534.4-1.098.47-1.676.47-3.602 2.94-14.967 2.94-14.967s1.11-6.227 10.61-6.277z" fill="#FFC54F"></path><path d="M1080.84 115.583c-1-6.655-4.99-9.619-8.13-10.806a31.962 31.962 0 014.79 10.167 58.906 58.906 0 011.79 12.174c.13 2.125.2 4.26.26 6.396a33.29 33.29 0 01-.12 5.468 13.232 13.232 0 01-3.06 7.064c.56 0 1-.06 1.2-.1 9.29-1.277 3.27-30.363 3.27-30.363z" fill="#000" opacity="0.1"></path><path d="M1034.94 130.201l-8.09.189c-.27.007-.53-.027-.78-.099a4.977 4.977 0 01-1.59-.739c-.9-.728-2.56-1.836-1.73.23.59.998.93 1.077.93 1.077l-6.52 1.138s-1.35.758.31 1.098c-.6.638-.82 1.466.54 1.386-.31.38-1 1.288.6 1.288-.61.379-.76 1.207 1.65 1.057 2.57-.159 14.58.21 14.58.21.28-2.268.31-4.56.1-6.835z" fill="#FF8880"></path><path d="M1017.47 133.095l4.76-.35M1018.01 134.482l4.22-.27M1018.61 135.769l2.94-.24" stroke="#FFB6B2" stroke-width="0.41" stroke-linecap="round" stroke-linejoin="round"></path><path d="M1051.63 121.53l-2.22 12.822" stroke="#F58220" stroke-width="0.41" stroke-linecap="round" stroke-linejoin="round"></path><path d="M1035.86 207.671l11.33-2.076 2 8.821s.74 2.514-.89 2.524c-2.17.26-15.6.998-15.6.998s-2.56-.329.49-2.305l3.54-2.265s.84-.389.18-2.075c-.46-1.736-1.05-3.622-1.05-3.622z" fill="#314351"></path><path d="M1044.1 217.26c-.09-.2-1.88-5.987 4.2-6.785M1036.6 210.105l2.49.37M1037.01 211.762l2.08.259" stroke="#A8AAAD" stroke-width="0.41" stroke-linecap="round" stroke-linejoin="round"></path><path d="M1026.89 177.138l-3.28-14.917s-2.12-8.921 7.09-13.89c.99-.515 2.01-.945 3.07-1.287l14.54-4.859" stroke="#F58220" stroke-width="0.41" stroke-linecap="round" stroke-linejoin="round"></path><path d="M1008.97 197.154l11.11 2.993-1.99 8.821s-.43 2.584-1.9 1.896c-2.06-.709-14.5-5.847-14.5-5.847s-2.163-1.397 1.44-1.856l4.18-.539s.93 0 1.07-1.786.59-3.682.59-3.682z" fill="#314351"></path><path d="M1012.27 209.377c0-.22.9-6.236 6.71-4.301M1008.58 199.668l2.09 1.407M1008.25 201.345l1.75 1.127" stroke="#A8AAAD" stroke-width="0.41" stroke-linecap="round" stroke-linejoin="round"></path><path opacity="0.1" d="M1059.09 101.504a5.823 5.823 0 003.99-.778c-1.28 1.307-4.44 2.265-4.44 2.265l.45-1.487z" fill="#000"></path><path d="M1054.46 146.325s1.62 0 1.52-3.332l-2.6-.27s.17 3.064 1.08 3.602z" fill="#F58220"></path><path d="M1067.77 103.919l.05-8.352c.01-1.645-1-3.127-2.53-3.732-2.99-1.167-7.56-2.165-8.73 2.325-.12.48-.14.978-.07 1.467 1 6.984 1.17 8.431 1.17 8.431l.27 1.497c.17 1.367.74 1.058 1.99 1.636 2 .918 5.09 1.667 7.13-.997.47-.663.73-1.46.72-2.275z" fill="#FF8880"></path><path d="M1056.45 95.168s-3.86-2.724-4.25-5.099a.84.84 0 01.18-.699.86.86 0 01.66-.299c1.89.17 3.71.774 5.33 1.766a7.396 7.396 0 00-1.92 4.33z" fill="#A8AAAD"></path><path d="M1067.81 98.081v-.13s1.54-5.387-1.27-7.982a3.912 3.912 0 00-1.26-.778c-2.1-.808-5.36-.768-7.19 1.906 3.71 2.624 9.72 6.984 9.72 6.984z" fill="#CC4E00"></path><path d="M1067.81 98.082l-3.72 3.681a8.213 8.213 0 01-5.26 2.425 5.006 5.006 0 01-3.49-.908 2.83 2.83 0 01-.74-3.412c.45-.899 1-1.748 1.63-2.535.11-.15.46-.3 1.86.918 1.23.998 2.92 2.225 4.63 1.587.43-.18.8-.457 1.11-.809.61-.698.99-1.436-.23-2.075a67.872 67.872 0 01-6.8-3.512c.29-.862.73-1.668 1.29-2.385 3.08 2.215 9.72 7.025 9.72 7.025z" fill="#314351"></path><path d="M1047.58 142.424l-14.72 5.089a14.908 14.908 0 00-5.79 3.562 12.191 12.191 0 00-3.67 8.142c-.05 2.89.43 5.765 1.41 8.482l2.08 9.459-1.22 4.131s-6.67-17.961-3.89-26.213c1.47-4.57 3.64-9.659 25.8-12.652z" fill="#000" opacity="0.1"></path><path fill-rule="evenodd" clip-rule="evenodd" d="M1071.44 145.866l-20.3 72.212c-.07.291-.26.54-.52.689-.26.149-.57.184-.86.099-.6-.2-.94-.841-.75-1.447l20.28-72.211c.08-.292.27-.541.53-.692.26-.15.57-.188.86-.106.6.204.94.846.76 1.456zM952.71 145.517l-20.296 72.212a1.11 1.11 0 01-1.387.788c-.6-.2-.935-.839-.758-1.447l20.296-72.221a1.118 1.118 0 011.386-.789c.602.205.937.847.759 1.457z" fill="#B2D4FF"></path><path fill-rule="evenodd" clip-rule="evenodd" d="M1070.65 144.39l20.02 72.291c.17.61-.16 1.252-.76 1.457a1.103 1.103 0 01-1.39-.799l-20.01-72.301c-.18-.607.15-1.247.75-1.447a1.103 1.103 0 011.39.799zM951.912 145.517l20.016 72.301c.17.61-.168 1.247-.769 1.447a1.107 1.107 0 01-1.377-.798l-20.016-72.301a1.178 1.178 0 01.759-1.447c.29-.082.6-.044.861.107.262.15.451.399.526.691z" fill="#B2D4FF"></path><rect x="1064.87" y="144.539" width="9.679" height="2.604" rx="1.22" fill="#B2D4FF"></rect><rect x="946.144" y="144.17" width="9.679" height="2.604" rx="1.22" fill="#B2D4FF"></rect><rect x="1080.51" y="112.43" width="35.223" height="23.119" rx="5.49" fill="#B2D4FF"></rect><path fill-rule="evenodd" clip-rule="evenodd" d="M1094.92 129.323h6.39l1.72 13.061-6.18.08-1.93-13.141z" fill="#B2D4FF"></path><rect x="915.252" y="142.304" width="195.401" height="2.235" rx="1.05" fill="#B2D4FF"></rect><circle cx="1098.39" cy="123.625" r="1.766" fill="#fff"></circle><path d="M1095.83 135.539l-.89-5.368s-2.17 5.368-3.4 5.368h4.29zM1057.83 105.006s3.99-.149 5.5-2.574a8.118 8.118 0 01-5.66 1.736c.1.439.16.838.16.838zM1058.09 91.057l9.72 7.025-10.03-6.636.14-.2.17-.19zM1056.82 93.382l-.19.678s5.99 2.774 6.22 2.804c.43.16 1.87.669 1.14 1.996.22-.32.65-.799.29-1.347a1.962 1.962 0 00-.68-.54s-4.06-1.945-6.78-3.591zM1070.12 116.371l-.09 16.554 2.13-.18-2.04-16.374z" fill="#000" opacity="0.1"></path><path d="M1052.51 134.422l19.65-1.677M1070.04 115.164c-.16.319 2.43 19.318 2.43 19.318" stroke="#F58220" stroke-width="0.41" stroke-linecap="round" stroke-linejoin="round"></path><path d="M969.174 86.647s3.891 4.64.818 6.775c-.372.25-.789.426-1.227.519-1.587.349-5.508.419-9.819-5.928" stroke="#C72C91" stroke-width="0.41" stroke-linecap="round" stroke-linejoin="round"></path><path clip-rule="evenodd" d="M969.174 93.87s-1.996.739-2.275 2.106a1.03 1.03 0 101.995.509c.25-.848.345-1.733.28-2.614v0zM969.244 93.85s2.644-.618 3.103.999c.189.848-1.208 1.776-3.103-.998z" stroke="#C72C91" stroke-width="0.41" stroke-linecap="round" stroke-linejoin="round"></path><rect x="1016.14" y="117.678" width="24.826" height="24.826" rx="2.45" fill="#fff"></rect><rect x="1016.14" y="117.678" width="24.826" height="24.826" rx="2.45" stroke="#A8AAAD" stroke-width="0.25" stroke-linecap="round" stroke-linejoin="round"></rect><path fill-rule="evenodd" clip-rule="evenodd" d="M1020.43 130.63l2.17-1.626h11.84l2.27 1.626h-16.28z" fill="#FFE5B2"></path><path fill-rule="evenodd" clip-rule="evenodd" d="M1025.58 122.508h5.92c.15 0 .27.12.27.269v.788h-6.46v-.818c.02-.137.13-.24.27-.239z" fill="#F7DFF5"></path><path fill-rule="evenodd" clip-rule="evenodd" d="M1024.49 123.565h8.07c.08 0 .14.029.19.079.06.051.08.119.08.191v.808h-8.61v-.808a.274.274 0 01.27-.27z" fill="#F4C6EF"></path><rect x="1022.6" y="124.673" width="11.844" height="7.045" rx="0.54" fill="#E085D3"></rect><path fill-rule="evenodd" clip-rule="evenodd" d="M1025.03 126.838h2.18a.272.272 0 01.27.27.28.28 0 01-.27.279h-2.18a.28.28 0 01-.27-.279.274.274 0 01.27-.27zM1025.03 128.465h4.88a.27.27 0 110 .539h-4.88a.27.27 0 110-.539z" fill="#F4C6EF"></path><path fill-rule="evenodd" clip-rule="evenodd" d="M1020.43 130.63h16.3v4.39c0 1.196-.97 2.166-2.17 2.166h-11.97c-1.2 0-2.17-.97-2.17-2.166l.01-4.39zm6.81 1.636h-.15a.669.669 0 00-.5.799v.189c.08.371.41.635.8.639h1.69a.81.81 0 00.79-.609l.06-.219a.485.485 0 000-.17.661.661 0 00-.65-.649l-2.04.02z" fill="#B2D4FF"></path><path fill-rule="evenodd" clip-rule="evenodd" d="M997.521 134.162a.22.22 0 010-.289 5.178 5.178 0 001.617-3.542.199.199 0 01.209-.2.2.2 0 01.2.2 5.578 5.578 0 01-1.756 3.841.2.2 0 01-.28 0l.01-.01zm-2.644-10.856a.249.249 0 01-.319.05 3.877 3.877 0 00-1.676-.559 4.263 4.263 0 00-2.445.529h-.08a.248.248 0 01-.309-.08.199.199 0 010-.269h.09a4.824 4.824 0 012.724-.589 4.645 4.645 0 011.925.649.198.198 0 01.07.269h.02zm-8.93 6.785a.2.2 0 01.199.19 4.711 4.711 0 001.617 3.352l.07.06a.202.202 0 010 .27.182.182 0 01-.26 0l-.07-.06a5.075 5.075 0 01-1.766-3.642.18.18 0 01.18-.19l.03.02z" fill="#BEEDC0"></path><circle cx="986.875" cy="122.897" r="1.656" fill="#E085D3"></circle><path fill-rule="evenodd" clip-rule="evenodd" d="M990.198 128.425a3.323 3.323 0 00-6.646 0" fill="#E085D3"></path><circle cx="997.941" cy="122.897" r="1.656" fill="#B2D4FF"></circle><path fill-rule="evenodd" clip-rule="evenodd" d="M1001.26 128.425a3.322 3.322 0 00-6.632 0h6.632z" fill="#B2D4FF"></path><circle cx="992.961" cy="132.306" r="1.656" fill="#FFE5B2"></circle><path fill-rule="evenodd" clip-rule="evenodd" d="M996.284 137.844a3.323 3.323 0 10-6.645 0" fill="#FFE5B2"></path><path fill-rule="evenodd" clip-rule="evenodd" d="M997.212 106.054v2.175h-.668v-2.175h-5.718a1.128 1.128 0 01-.998-1.217v-5.289a1.138 1.138 0 01.998-1.217h5.458v-2.844h.669v2.844h5.987a1.13 1.13 0 011 1.217v5.289c.06.611-.39 1.154-1 1.217h-5.728zm-6.705-2.864v1.647a.379.379 0 00.329.409h12.084a.375.375 0 00.34-.409v-5.289a.375.375 0 00-.34-.409h-12.094a.378.378 0 00-.329.41l.01 3.641z" fill="#BEEDC0"></path><rect x="986.236" y="100.087" width="7.843" height="3.672" rx="0.67" fill="#B2D4FF"></rect><rect x="992.772" y="92.135" width="7.843" height="3.672" rx="0.67" fill="#E085D3"></rect><rect x="993.61" y="108.229" width="6.556" height="3.672" rx="0.67" fill="#F4C6EF"></rect><rect x="999.347" y="100.087" width="7.843" height="3.672" rx="0.67" fill="#FFE5B2"></rect><path d="M1052.51 134.422a13.007 13.007 0 013.47 8.571c-9.38-.998-16.04-1.746-18.53-1.866-1.63-.17-2.89 0-1.59-.998-.46-.419-2.33-.249-.48-1.377-.74-.339-2.44-.229-.29-1.247-.85-.389-3.83-1.467.28-1.806 1.44-.146 2.89-.219 4.34-.22 0 0 1.1.11.29-.998-.81-1.107-.46-2.145 1.74-.508l.84.678 9.93-.229z" fill="#FF8880"></path><path d="M1035.09 137.465l3.98-.01M1035.38 138.712h3.49M1035.86 140.089l3.21.09" stroke="#FFB6B2" stroke-width="0.41" stroke-linecap="round" stroke-linejoin="round"></path><path d="M1010.67 95.627c.12-.07 1.11-6.466 1.87 0 .42 4.68 1.22 5.178-.25 5.987-1.47.808-5.73 2.394-5.73 2.394s-1.99.459-.49-1.327c-.31-.149-1.9-.309.11-1.756-.76-.299-2.16-.339-.15-1.636-.5-.3-1.67-.569.65-1.597a32.844 32.844 0 003.99-2.065z" fill="#FFB6B2"></path><path d="M1006.03 99.249l3.44-1.227M1006.18 100.885l3.55-1.227M1006.07 102.641l3.66-1.416" stroke="#FF8880" stroke-width="0.41" stroke-linecap="round" stroke-linejoin="round"></path><path d="M956.531 108.738l-.129 6.985 27.439-5.129s1.936-.469 2.295-1.946c.29-1.636 1.906-3.911 1.717-.588-.07 1.546 0 2.105 2.464.838 2.465-1.268 6.257-2.635 4.78-.599.578.419 1.397.489-.22 1.477.769.07 1.138.459-.129 1.576.568.15 1.347.759-1.747 2.305-3.093 1.547-35.871 12.273-35.871 12.273s-11.046 4.67-12.971-13.75l12.372-3.442z" fill="#FFB6B2"></path><path d="M990.327 110.025c.11-.08 4.73-1.766 4.73-1.766M991.006 111.213l3.911-1.517M990.826 112.799l3.991-1.487" stroke="#FF8880" stroke-width="0.41" stroke-linecap="round" stroke-linejoin="round"></path><rect x="927.196" y="116.561" width="25.773" height="25.773" rx="2.45" fill="#fff"></rect><rect x="927.196" y="116.561" width="25.773" height="25.773" rx="2.45" stroke="#A8AAAD" stroke-width="0.25" stroke-linecap="round" stroke-linejoin="round"></rect><rect x="931.656" y="124.633" width="4.819" height="12.034" rx="0.6" fill="#B2D4FF"></rect><rect x="937.673" y="124.633" width="4.819" height="7.224" rx="0.6" fill="#E085D3"></rect><rect x="943.63" y="124.613" width="4.819" height="12.034" rx="0.6" fill="#FFE5B2"></rect><path fill-rule="evenodd" clip-rule="evenodd" d="M932.265 122.228h3.602a.603.603 0 01.43 1.026.602.602 0 01-.43.172h-3.602a.599.599 0 110-1.198z" fill="#B2D4FF"></path><path fill-rule="evenodd" clip-rule="evenodd" d="M944.298 122.228h3.622a.599.599 0 110 1.198h-3.612a.599.599 0 01-.01-1.198z" fill="#FFE5B2"></path><path fill-rule="evenodd" clip-rule="evenodd" d="M938.282 122.228h3.652a.599.599 0 010 1.198h-3.613a.598.598 0 01-.608-.599.599.599 0 01.569-.599z" fill="#E085D3"></path><path d="M973.345 73.186s-5.119-.34-7.983-4.041c1.317.868 5.428 3.622 7.983 3.303-.01.429 0 .738 0 .738zM1035.86 207.671s11.36-2.076 10.57-6.596l.76 4.52-11.33 2.076z" fill="#000" opacity="0.1"></path><path d="M954.666 116.152l1.616-.379" stroke="#FF8880" stroke-width="0.41" stroke-linecap="round" stroke-linejoin="round"></path><path d="M1008.97 197.154s9.53 1.467 12.29-.938l-1.18 3.991-11.11-3.053zM1067.81 98.081s1.67-5.887-1.59-8.421c.84 2.345.92 6.266 0 7.264 1.36 1.008 1.59 1.157 1.59 1.157zM971.329 198.641l1.128 8.162 1.486-.1-1.975-8.082-.639.02zM961.85 198.9l1.137 8.222 1.268-.08-1.926-8.152-.479.01z" fill="#000" opacity="0.1"></path><path d="M1044.84 206.024l-7.82-44.941M1016.94 199.319l7.07-23.109" stroke="#F58220" stroke-width="0.41" stroke-linecap="round" stroke-linejoin="round"></path><path d="M967.737 81.258a12.855 12.855 0 01-3.752 0c1.23.595 2.567.934 3.931.998l-.179-.998z" fill="#000" opacity="0.1"></path><circle cx="958.607" cy="63.088" r="2.275" fill="#000"></circle><circle cx="966.11" cy="73.725" r="0.399" fill="#000"></circle><circle cx="972.367" cy="74.922" r="0.399" fill="#000"></circle><path d="M969.244 74.583l.039 2.465" stroke="#FF8880" stroke-width="0.2" stroke-linecap="round" stroke-linejoin="round"></path><path d="M966.4 76.988l2.345 1.676a1.847 1.847 0 01-1.717.1 1.452 1.452 0 01-.279-.21 1.525 1.525 0 01-.349-1.566z" fill="#fff"></path><path d="M959.375 59.995s3.433.798.998 4.86M961.62 60.195s2.186 2.604-1.666 4.23" stroke="#000" stroke-width="0.2" stroke-linecap="round" stroke-linejoin="round"></path><path d="M962.548 72.677s-1.477-1.776-1.995.47" stroke="#FF8880" stroke-width="0.2" stroke-linecap="round" stroke-linejoin="round"></path><path d="M961.311 73.865l-.18 5.029M944.139 112.071l12.303-3.333" stroke="#C72C91" stroke-width="0.41" stroke-linecap="round" stroke-linejoin="round"></path><g opacity="0.48"><circle cx="1122.47" cy="52.761" r="18.699" fill="#C4D9F9"></circle><circle cx="1122.47" cy="52.761" r="16.154" fill="#fff"></circle><path d="M1122.46 40.897v11.864l-6.73-4.95" stroke="#4D9AFF" stroke-width="0.47" stroke-linecap="round" stroke-linejoin="round"></path></g><rect x="1129.84" y="162.849" width="68.719" height="56.556" rx="2.04" stroke="#AAD0F9" stroke-width="0.51"></rect><rect x="1133.58" y="166.322" width="61.575" height="23.838" rx="1.02" fill="#AAD0F9"></rect><rect x="1133.58" y="193.013" width="61.575" height="23.838" rx="1.02" fill="#AAD0F9"></rect><path d="M1133.58 168.836h5.8v21.323M1142.13 190.159V171.66h4.88v18.499M1139.38 174.414h2.75M1150.01 190.159v-19.637h3.57v19.637M1147.01 174.593h3" stroke="#fff" stroke-width="0.51" stroke-linecap="round" stroke-linejoin="round"></path><path d="M1172.88 190.159l4.93-16.494-3.96-1.357-4.83 16.754 3.86 1.097z" fill="#ECF3FF"></path><path fill="#78B6F9" d="M1177.81 170.522h4.221v19.627h-4.221z"></path><path fill="#fff" d="M1185.83 170.901h5.019v19.258h-5.019z"></path><path d="M1190.85 174.134h4.31v14.968a1 1 0 01-1 .997h-3.29v-15.965h-.02z" fill="#78B6F9"></path><path d="M1182.03 173.636h3.8" stroke="#fff" stroke-width="0.51" stroke-linejoin="round"></path><path d="M1133.58 197.104h3.34v19.747h-2.32a1 1 0 01-1-.998v-18.749h-.02z" fill="#78B6F9"></path><path stroke="#fff" stroke-width="0.51" stroke-linecap="round" stroke-linejoin="round" d="M1136.92 195.617h4.301v21.613h-4.301z"></path><path fill="#fff" d="M1145.15 198.441h4.091v18.41h-4.091z"></path><path d="M1141.21 200.626h3.94" stroke="#fff" stroke-width="0.51" stroke-linecap="round" stroke-linejoin="round"></path><path d="M1149.24 201.155l6.31 15.696 2.97-1.128-6.42-15.815-2.86 1.247z" fill="#78B6F9"></path><rect x="428.92" y="170.892" width="33.077" height="44.722" rx="0.92" stroke="#AAD0F9" stroke-width="0.43"></rect><path d="M431.431 174.51a.92.92 0 01.912-.929l25.838-.234a.92.92 0 01.928.912l.343 37.761a.92.92 0 01-.912.928l-25.838.235a.92.92 0 01-.928-.912l-.343-37.761z" fill="#AAD0F9"></path><path d="M431.534 184.362l27.68-.259M431.634 195.218l27.679-.249" stroke="#fff" stroke-width="0.43"></path><path d="M440.345 178.894l9.848-.09M440.445 189.71l9.838-.09M440.545 200.187l9.848-.09" stroke="#fff" stroke-width="0.43" stroke-linecap="round" stroke-linejoin="round"></path><path clip-rule="evenodd" d="M452.937 215.613h5.987v2.455a.47.47 0 01-.459.469h-5.098a.459.459 0 01-.469-.449v-2.565l.039.09zM432.572 215.613h6.037v-.159 2.374a.449.449 0 01-.449.459l-5.109.07a.47.47 0 01-.469-.459v-2.365l-.01.08z" stroke="#AAD0F9" stroke-width="0.43"></path><path d="M1304.6 46.734s1.53 1.726 5.15-.07" stroke="#000" stroke-width="0.23" stroke-linecap="round" stroke-linejoin="round"></path><path d="M1297.82 62.51a6.78 6.78 0 01-6.39-4.68c-1-3.103-1.07-8.412 6.46-11.036 1.89-.439 6.75.36 7.16 7.224.75-.499 1.31-.928 1.99-.339.62.568.81 1.461.49 2.235a3.46 3.46 0 01-1.86 1.996c.55 2.434.86 7.753 7.5 7.783-.48 8.401-.61 12.163-.61 12.163l-20.14.798-1.54-10.297s4.92.558 6.94-5.847z" fill="#F4AE8C"></path><path opacity="0.1" d="M1311.22 65.473a8.955 8.955 0 01-.65 3.862 13.624 13.624 0 01-2.76 4.799 20.56 20.56 0 01-5.67 4.121l10.44-.42s.13-3.76.61-12.162c-.66-.005-1.32-.072-1.97-.2z" fill="#000"></path><path d="M1270.8 90.807s10.28-20.884 16.96-22.22l.74 14.966s-3.08 2.615-10.3 14.578c-4.83 1.387-7.21-2.574-7.4-7.324zM1317.04 65.573s5.36-.519 8.14 7.853c3.06 8.192 3.59 10.975 3.59 10.975l4.06-12.532s5.38-6.156 5.16 2.115c-.31 6.895-2.19 21.383-2.99 27.37-.3 2.205-1 4.74-2.54 5.877a7.507 7.507 0 01-7.99-.568c-1.3-.998-3.08-2.904-4.35-9.759-1.01-15.057-3.08-31.331-3.08-31.331z" fill="#F4AE8C"></path><path d="M1283.78 109.466l-26.42-.119a2 2 0 01-1.85-1.268l-8.3-20.953a1.996 1.996 0 01.21-1.864c.37-.548 1-.874 1.66-.87l26.42.12c.82.002 1.55.5 1.85 1.257l8.3 20.953c.25.618.17 1.32-.2 1.871-.38.551-1 .879-1.67.873z" fill="#A8AAAD"></path><path opacity="0.1" d="M1281.19 108.868c-7.36-.838-14.24-3.922-20.47-7.823-5.87-3.692-11.2-8.581-12.6-15.666-.57-2.833-4.91-1.656-4.35 1.178a23.475 23.475 0 005.77 11.075c-.61.31-1.03.902-1.11 1.58-.09.678.17 1.354.69 1.803.66.589 1.33 1.157 1.99 1.716-1.91-.08-3.63 2.245-1.81 3.692a64.967 64.967 0 0025.94 12.523 2.324 2.324 0 002.82-2.235l1.58.409c.98.21 1.98-.227 2.48-1.085.51-.858.41-1.945-.24-2.697 2.11-.399 1.9-4.181-.69-4.47z" fill="#000"></path><path d="M1296.9 197.254l-2.06 14.867-.4 5.109s.37 1.726-2.79 1.417a39.141 39.141 0 01-11.34-4.111l2.41-.739s1.05-.199.76-3.761c-.28-4.511-1.13-13.64-1.13-13.64l14.55.858zM1310.6 195.927l3.94 21.422s0 2.994 7.93 1.876a19.237 19.237 0 004.24-5.418 3.08 3.08 0 01-2.35-2.624c-.31-2.315-1.46-16.913-1.46-16.913l-12.3 1.657z" fill="#F4AE8C"></path><path d="M1252.64 96.385a.325.325 0 00-.31-.23c-.15 0-.27.093-.32.23-.5 1.419-.72 2.918-.67 4.42a6.469 6.469 0 001.93 3.992c1.19 1.167 2.75 1.796 5.6 1.187a2.7 2.7 0 001.26-.648c.36-.35.52-.729-.27-1.058.24-.938.65-2.325-.34-2.335 0-1.138.16-1.936-.54-1.836.31-.938.99-1.686-.34-1.836-1.34-.15-5.4 0-5.4 0l-.6-1.886z" fill="#FF8880"></path><path d="M1252.64 96.385a.325.325 0 00-.31-.23c-.15 0-.27.093-.32.23-.5 1.419-.72 2.918-.67 4.42a6.469 6.469 0 001.93 3.992c1.19 1.167 2.75 1.796 5.6 1.187a2.7 2.7 0 001.26-.648c.36-.35.52-.729-.27-1.058.24-.938.65-2.325-.34-2.335 0-1.138.16-1.936-.54-1.836.31-.938.99-1.686-.34-1.836-1.34-.15-5.4 0-5.4 0l-.6-1.886z" fill="#F4AE8C"></path><path d="M1285 69.684s2.6-1.726 7.48-1.447c2 5.348 2.85 8.222 2.85 8.222l15.69-.38.95-10.496s5.07-.46 7.29.449c0 0 0 25.943 2 39.443 0 0 8.52 84.046 9.34 88.007-13.13 2.235-19.96 2.834-19.96 2.834l-7.66-56.456-6.08 57.434-23.52-.1 17.39-100.14-3.71-12.493-2.06-14.877z" fill="#7DCC7A"></path><g opacity="0.32"><path d="M1139.41 205.007s.07-5.428 0-5.428-.06 5.428 0 5.428z" fill="#FFE5B2" opacity="0.34"></path><path d="M1315.43 59.546l-.29 64.858-.28 64.857-.16 36.779v0l.29-64.857.28-64.858.16-36.779v-2.714 2.714zM1307.66 61.582l-.45 101.896-.08 28.737v0l.45-101.907.12-28.726v-2.714 2.714h-.04zM1298.3 72.148l-.26 60.567-.27 60.567-.15 34.075v0l.26-60.576.27-60.567.14-34.066v-2.714 2.714h.01zM1301.94 68.277l-.32 71.533-.08 20.046v0l.31-71.523.09-20.056v-2.714 2.714zM1293.4 68.756l-.27 62.483-.28 62.482-.15 35.163v0l.28-62.483.27-62.482.15-35.163v-2.704 2.704zM1289.02 65.124l-.26 59.27-.26 59.269-.15 33.557v0l.26-59.27.26-59.27.14-33.556V62.41v2.714h.01zM1286.52 104.427l-.4 91.21-.11 25.714v0l.39-91.21.12-25.714v-2.714 2.714zM1283.3 130.55l-.32 71.324-.08 19.956v0l.31-71.324.09-19.956v-2.714 2.714zM1279.92 135.18l-.28 62.064-.07 17.611v0l.27-62.054.08-17.621v-2.704 2.704zM1277.5 156.383l-.27 62.862v0l.27-62.862v-2.714 2.714zM1312.55 67.29l-.41 92.965-.11 26.292v0l.41-92.966.11-26.292v-2.714 2.714zM1318 63.956l-.25 56.876-.25 56.875-.14 31.929v0l.25-56.875.24-56.875.14-31.93v-2.714 2.714h.01zM1321.49 93.462l-.39 88.884-.11 24.946v0l.39-88.895.1-24.945v-2.715 2.715l.01.01zM1323.45 118.816l-.31 71.323-.09 19.956v0l.31-71.323.09-19.956v-2.714 2.714zM1326.2 139.53l-.26 60.108-.07 16.963v0l.26-60.108.08-16.963v-2.704 2.704h-.01zM1327.5 138.752l-.25 58.492-.08 16.783v0l.25-58.482.08-16.793v-2.714 2.714zM1330.6 139.281l-.29 66.225v0l.29-66.225v-2.704 2.704zM1328.91 171.101l-.16 35.173v0l.15-35.173v-2.714 2.714h.01zM1305.55 72.178l-.3 69.298-.09 19.687v0l.31-69.298.08-19.687v-2.714 2.714zM1303.21 73.974l-.26 58.033-.07 16.474v0l.25-58.043.07-16.464V71.26v2.714h.01zM1299.84 74.743l-.3 69.497-.09 19.747v0l.3-69.508.09-19.736v-2.714 2.714zM1295.46 71.36l-.35 79.416-.09 22.5v0l.35-79.425.1-22.49v-2.715 2.714h-.01zM1309.7 69.863l-.35 79.226-.1 22.441v0l.34-79.226.1-22.44v-2.715 2.714h.01zM1314.38 64.455l-.44 100.15-.12 28.158v0l.49-100.13.12-28.148v-2.714 2.714l-.05-.03zM1290.83 64.615l-.28 64.129-.28 64.129-.16 36.261v0l.28-64.13.28-64.139.16-36.25V61.9v2.714zM1286.44 64.854l-.29 64.409v0l.28-64.409V62.14v2.714h.01zM1287.45 66.92l-.18 43.464v0l.18-43.464v-2.704 2.704zM1303.99 73.466l-.3 67.95-.08 19.218v0l.3-67.95.08-19.218V70.75v2.715zM1296.48 73.426l-.26 62.482-.28 62.483-.15 35.163v0l.28-62.483.27-62.483.14-35.152v-2.714 2.704zM1313.34 64.695l-.26 59.868-.26 59.629-.15 33.876v0l.26-59.869.27-59.619.14-33.925V61.95v2.744zM1317.23 62.919l-.3 66.663-.29 66.664-.16 37.398v0l.3-66.664.29-66.663.16-37.398v-2.714 2.714zM1292.9 65.134l-.29 65.795-.29 65.516-.16 37.089v0l.29-65.786.29-65.516.16-37.098V62.42v2.714z" fill="#FFE5B2" opacity="0.54"></path><path d="M1321.49 92.424l-.24 55.199-.24 54.879-.13 31.112v0l.24-55.199.24-54.929.14-31.112V89.66v2.714l-.01.05zM1318.94 85.17l-.25 57.464-.25 57.453-.14 32.529v0l.25-57.464.26-57.454.14-32.528v-2.714 2.714h-.01z" fill="#FFE5B2" opacity="0.54"></path></g><path d="M1258.98 100.147l-4.63.209M1259.52 101.983l-4.54.409M1259.86 104.318l-4.14.299" stroke="#894837" stroke-width="0.27" stroke-linecap="round" stroke-linejoin="round"></path><ellipse cx="1266.74" cy="96.779" rx="1.866" ry="3.103" transform="rotate(-13.51 1266.74 96.779)" fill="#F1F3F5"></ellipse><path opacity="0.1" d="M1332.71 72.558c.51.317 1.09.521 1.69.598-1.34.31-2.68.828-1.41 1.686 1.55.651 3.24.922 4.91.789a36.475 36.475 0 01-.08 1.117s-4.78.24-5.88-2.115c.15-.725.41-1.425.77-2.075zM1297.82 62.51a13.939 13.939 0 004.51-2.315 18.961 18.961 0 01-5.62 4.8c.72-1.428.84-1.957 1.11-2.485zM1303.07 140.448l-.82-16.453-12.03 73.229 6.68.03 6.17-56.806z" fill="#000"></path><path d="M1301.8 114.984l1.27 25.464" stroke="#4AA147" stroke-width="0.54" stroke-linecap="round" stroke-linejoin="round"></path><path d="M1330.08 80.14h-8.56a.511.511 0 01-.5-.468l-.92-15.287c0-.136.05-.27.14-.369.1-.1.23-.157.36-.16h10.44c.14 0 .27.058.37.16.09.103.14.24.13.38l-1 15.236c0 .263-.2.483-.46.509z" fill="#C72C91"></path><path opacity="0.1" d="M1334.93 83.334c-7.49-2.814-16.21-10.557-15.52-19.258.23-2.884-4.27-2.893-4.5 0-.23 3.978.85 7.923 3.08 11.225a1.78 1.78 0 00-.8 1.806c.27 2.555 2.18 3.623 4.13 4.99 2.36 1.71 4.76 3.372 7.19 4.989.44.306.97.427 1.5.337.52-.09.98-.383 1.29-.816.81.379 1.61.728 2.41.997 2.72 1.038 3.9-3.262 1.22-4.27z" fill="#000"></path><path d="M1331.21 65.623l4.61.02-.05 13.18-6.17-.02" stroke="#C72C91" stroke-width="1.09" stroke-linecap="round" stroke-linejoin="round"></path><path d="M1319.26 65.992l.29 15.805" stroke="#4AA147" stroke-width="0.54" stroke-linecap="round" stroke-linejoin="round"></path><path opacity="0.1" d="M1291.02 55.914s3.27 1.527 6.4-2.435c1.55-1.865 2.91-3.592 2.91-3.592s1.99-2.464 4.14 4.58c-.38-1.496-.68-5.987-3.15-6.386-.7-.07-.87.09-2.77 2.415-2 2.125-5.32 5.159-7.57 4.38-.01.48.04 1.038.04 1.038z" fill="#000"></path><path d="M1291.77 49.249s-2.52 1.846-2.12 2.444c.15.2-.16.55-.66.998-.5.45-.76 1.656.44 1.706 0 .41 2.41 1.916 4.81.58a21.308 21.308 0 005.34-5.09c.81-1.447 1.88-1.477 2.92.928a20.253 20.253 0 002 3.652l1.52-.998a.852.852 0 01.8 0l.12.06c.05-.926.01-1.855-.12-2.774a8.415 8.415 0 00-2.79-5.867 7.915 7.915 0 00-4.6-2.065h-.84c-2.22.056-4.34.91-5.99 2.404-.66.59-1.11 1.068-1.11 1.068s-.11 1.407.66 1.647c-.04.457-.17.902-.38 1.307z" fill="#000"></path><path opacity="0.1" d="M1304.9 49.438a7.682 7.682 0 00-3.81-3.582c-3.57-1.537-7.4.11-10.34 2.215-.52.37 0 1.238.5.868 2.61-1.876 5.98-3.472 9.19-2.275 1.56.6 2.85 1.77 3.59 3.273.65 1.667.93 3.453.84 5.239a.495.495 0 10.99 0c.1-1.96-.23-3.917-.96-5.738z" fill="#000"></path><path d="M1334.68 67.828s-2.21 0-2.19.638c0 .48 1.24 1.058 2.66.998-1.82.44-2.72.609-2.67 1.178.45.548 1.17.81 1.87.688-1.28.31-1.99.35-1.88.898.38.536.98.873 1.64.918-1 .33-1.81.39-1.99.918.17.49.84 1.118 4.36 1.477l1.99.1c.39.029.74-.205.86-.569.11-.341.15-.7.12-1.058-.05-1.995-.28-7.214-2.79-9.26 0 0-2.15-1.815-.87.998.65 1.437.54 1.886.54 1.886l-1.65.19z" fill="#F4AE8C"></path><path d="M1334.01 69.494l3.48.13M1333.55 71.34l3.93.03M1333.61 73.176l3.56-.01" stroke="#894837" stroke-width="0.27" stroke-linecap="round" stroke-linejoin="round"></path><path d="M1324.8 60.624c.15.16-6.16-5.219.64-12.453 3.43-3.612 10.89-11.215.08-18.61 0 0 7.09.64 8.59 7.714a12.34 12.34 0 01-3.67 11.575c-.63.584-1.3 1.13-2 1.636-.91.666-1.76 1.421-2.52 2.255-1.83 1.976-3.72 5.119-1.12 7.883z" fill="#F4C6EF"></path><path d="M1327.09 60.644s-3.46-8.472 6.8-9.47M1321.97 61.342s-3.3-1.786-2-7.683" stroke="#F4C6EF" stroke-width="1.09" stroke-linecap="round" stroke-linejoin="round"></path><path d="M1305.69 57.89l.33 1.646.11.499.12.459.39-3.223-.95.619z" fill="#000"></path><circle cx="1304.52" cy="42.833" r="4.68" fill="#000"></circle><path opacity="0.1" d="M1309.34 37.285a1.27 1.27 0 00-1.54-.878c-.65.198-1.04.872-.88 1.537.5 1.964.5 4.022 0 5.986a15.305 15.305 0 01-2.84 4.99c-.47.499-.47 1.276 0 1.776a1.25 1.25 0 001.76 0 18.835 18.835 0 003.49-6.127c.6-2.39.61-4.893.01-7.284z" fill="#000"></path><path d="M1292.03 47.922s3.91-4.091 8.73-1.796a8.024 8.024 0 014.3 5.647c.17.77.17 1.566 0 2.335.26-.14.65-.42.65-.42s1.26-6.215-2.91-9.159a5.117 5.117 0 00-2.1-.848c-3.34-.599-6.77.356-9.32 2.594-.35.37 0 1.397.65 1.647z" fill="#7DCC7A"></path><path opacity="0.1" d="M1306.37 51.434a12.604 12.604 0 00-.54-3.223 6.742 6.742 0 00-3.48-4.101c-4.11-2.066-8.72-.14-12.18 2.285-.53.37 0 1.237.5.868 3.09-2.165 7.25-4.12 10.97-2.365a5.848 5.848 0 013.24 3.682c.27.975.43 1.98.47 2.994a10.485 10.485 0 01-.61 3.233c-.19.608.78.877.99.269.42-1.169.64-2.4.64-3.642z" fill="#000"></path><path d="M1320.75 75.042l10.13.05M1320.88 77.257l9.85.04" stroke="#F7DFF5" stroke-width="0.54" stroke-linecap="round" stroke-linejoin="round"></path><path opacity="0.1" d="M1311.01 198.202l11.91-3.662-12.28 1.736.37 1.926z" fill="#000"></path><path d="M1310.64 196.276l20.01-2.834" stroke="#4AA147" stroke-width="0.54" stroke-linecap="round" stroke-linejoin="round"></path><path opacity="0.1" d="M1282.62 199.289l14.27-1.995-14.46-.1.19 2.095z" fill="#000"></path><path d="M1273.38 197.154l23.52.1M1292.48 68.197l2.85 8.222 15.69-.38.95-10.496" stroke="#4AA147" stroke-width="0.54" stroke-linecap="round" stroke-linejoin="round"></path><path opacity="0.1" d="M1280.65 94.09s4.11-6.236 5.99-8.551l.54-.659-.33-2.225s-5.08 7.464-6.83 9.889l.63 1.546z" fill="#000"></path><path d="M1285 69.644l2.2 15.336" stroke="#4AA147" stroke-width="0.54" stroke-linecap="round" stroke-linejoin="round"></path><path opacity="0.1" d="M1326.26 96.784s1.35-11.884 1.66-15.466c.45 1.517.86 3.123.86 3.123l-2.52 12.343z" fill="#000"></path><path d="M1325.53 100.436l3.24-15.995" stroke="#894837" stroke-width="0.27" stroke-linecap="round" stroke-linejoin="round"></path><path opacity="0.1" d="M1281.64 214.127s6.56 3.572 12.97.868c-.05 1.237-.1 1.995-.1 1.995s-7.24 2.036-12.87-2.863z" fill="#000"></path><path d="M1294.46 216.94s1.07 2.206-4.06 2.186c-5.13-.02-16.66.399-16.66.399s-1.8-.868 2.35-3.133a32.4 32.4 0 015.55-2.265 16.338 16.338 0 0012.82 2.813z" fill="#314351"></path><path d="M1286.62 216.581a12.187 12.187 0 018.32-5.188" stroke="#314351" stroke-width="1.09" stroke-linecap="round" stroke-linejoin="round"></path><path opacity="0.1" d="M1314.57 217.549l-.36-1.996s3.37 1.597 11.61-2.105c-2.65 1.706-6.29 4.171-11.25 4.101z" fill="#000"></path><path d="M1314.54 217.359c.09.78.51 1.482 1.16 1.933.64.45 1.44.608 2.21.432 3.99-.409 14.97-1.047 15.2-1.087.88-.17 2.29-.3-.28-1.846-2.88-1.617-6.86-3.433-6.86-3.433s-6.48 4.061-11.43 4.001z" fill="#314351"></path><path d="M1313.62 212.61s3.9-1.627 7.62 3.861" stroke="#314351" stroke-width="1.09" stroke-linecap="round" stroke-linejoin="round"></path><path d="M1295.76 55.715c-.03.887.02 1.775.15 2.654" stroke="#894837" stroke-width="0.27" stroke-linecap="round" stroke-linejoin="round"></path><path d="M1295.79 59.626l2.51-1.996c.17.661-.01 1.361-.47 1.866-.09.09-.19.168-.31.23-.55.286-1.22.248-1.73-.1z" fill="#fff"></path><path d="M1304.78 54.946s1.08-1.287 1.87-.539c.42.525.51 1.244.23 1.856" stroke="#894837" stroke-width="0.27" stroke-linecap="round" stroke-linejoin="round"></path><circle cx="1292.63" cy="56.333" r="0.369" fill="#000"></circle><circle cx="1299.9" cy="55.086" r="0.429" fill="#000"></circle></svg>