<svg xmlns="http://www.w3.org/2000/svg" viewBox="0 0 500 500"><g id="freepik--Water--inject-46"><g id="freepik--Sea--inject-46"><ellipse cx="250.03" cy="349.73" rx="231.33" ry="133.49" style="fill:#0565FF"></ellipse><ellipse cx="250.03" cy="349.73" rx="231.33" ry="133.49" style="fill:#fff;opacity:0.45"></ellipse><g style="opacity:0.30000000000000004"><path d="M423.22,438.22a95,95,0,0,0-10.54-3.57c-3.11-.76-7.3-1.11-10.63.31a8.78,8.78,0,0,0-4.23,3.89,16.7,16.7,0,0,0-2.32,6.75c-.24,2.3.11,4.54-.46,6.87a9.62,9.62,0,0,1-.55,1.52c2.63-1.22,5.23-2.47,7.79-3.77.38-1.37.78-2.74,1.21-4.11a11.09,11.09,0,0,1,1.44-3.21,5,5,0,0,1,3-2,4.52,4.52,0,0,1,1.82.23c1.78.47,4.24.84,6.76,1.31Q420,440.34,423.22,438.22Z" style="fill:#fff"></path><path d="M47.05,308.31c8.1-1.94,17.24-4.74,20.32-9.25,3.34-4.84-2.06-8.87-5.37-12.84-3.15-3.75-4.4-8.39-1.66-12.93q-5.27,4.33-9.87,8.86a12.7,12.7,0,0,0,1.6,4c1,1.61,2.37,3,3.27,4.65a6.49,6.49,0,0,1,.27,6c-1.57,3.24-5.69,5.08-9.21,5.82-4.07.86-8,.88-12.1,1.66-.7.13-1.4.3-2.11.5a96.76,96.76,0,0,0-5.95,11.13C31.06,312.15,39.49,310.13,47.05,308.31Z" style="fill:#fff"></path><path d="M168.64,474.71q5.55,1.2,11.18,2.23a33.43,33.43,0,0,0-9.66-2.14C169.66,474.76,169.15,474.74,168.64,474.71Z" style="fill:#fff"></path><path d="M467.47,395.36c-2.25.5-4.56.9-6.82,1.23-7.11,1-13.69-.62-20-2-5.78-1.29-11.47-2.79-17.45-3.69-2.24-.34-4.44-.41-6.33,2-1.44,1.85-1.15,4.06-3.2,5.7-2.68,2.12-8.33,2.44-11.44,1.26s-4.38-3.32-5.81-5.29c-6-8.25-16.67-15-30.48-19.42-2.43-.77-5.07-1.53-6.2-3s-.52-3.41.18-5.21q1.77-4.68,3.53-9.37a4.14,4.14,0,0,1,1.57-2.21c1.47-1,3.92-1.33,6-1.41,7.93-.31,15.25,1.45,23.28,0,6.46-1.13,11.93-4.1,17.53-6.56A116.12,116.12,0,0,1,431,341.07c8.7-2.07,18.41-3.22,25.59-1.37s10.12,7.55,4.2,11.84c-1.91,1.39-4.51,2.49-6.22,3.95-3.72,3.13-2.11,6.74,1,9.21,3.7,2.93,9.14,5,14.25,7.14a59,59,0,0,1,7.21,3.58c.55-1.63,1-3.26,1.48-4.9a40.86,40.86,0,0,1-5.33-2.56c-1.95-1.1-4.28-1.53-6.17-2.79-2.31-1.54-3.67-3.65-2.74-5.94s3.85-4.34,5.78-6.53c4.38-5,3-10.68-3.43-13.53-3.22-1.42-7.89-2.66-7.18-5.23s5.89-4.25,10.12-5.76a75.52,75.52,0,0,0,7.76-3.25c-.8-2.44-1.7-4.86-2.73-7.27-3.56,4.28-10,7.48-14.8,9.3-8.49,3.19-18.54,4.61-26.41,8.32-4.1,1.93-8.55,4.68-13.09,4.33-3.11-.24-4.64-1.95-4.9-3.69s.34-3.61,0-5.32c-.61-2.82-3.88-5-7.52-6.69-10.43-4.92-24.93-7.73-31.4-14.53-1.15-1.21-2-2.71-.71-4.18,2.69-3.1,10.92-2.92,15.78-5.27,5-2.43,4.36-6.3,3.13-9.3l-3.81-9c-.9-2.16-1.81-4.34-1.34-6.71s2.55-5,6.33-6.59c5.41-2.33,12.24-2,17.56-1a41.19,41.19,0,0,1,11.15,3.44c14.92,7.8,5.46,25,19.9,33a21.31,21.31,0,0,0,12.08,2.46c3.69-.31,7.44-1.5,11.09-1.87q-2.36-3.78-5.11-7.48a21.23,21.23,0,0,1-8-1c-7.63-3-7.81-12.89-11.58-19.65-.08-.15-.18-.3-.27-.45a168.6,168.6,0,0,0-13.38-10.45c-.72-.3-1.45-.59-2.19-.86-6.59-2.39-13.81-3.7-20.63-5.75-.92-.29-1.89-.63-2.22-1.47-.45-1.14.38-3.75,1.52-6.24a278,278,0,0,0-52.23-20.71c-3.55.18-7.13.47-10.68.72a2.63,2.63,0,0,1-1.45-.17c-.73-.44-.53-1.55-.37-2.47.09-.46.16-.92.21-1.37q-3.3-.81-6.63-1.57a9.71,9.71,0,0,1-.34,3,10.35,10.35,0,0,1-6.47,7c-1.94.81-4.22,1.27-6.05,2.14a9.41,9.41,0,0,0-3.82,3.23c-2.64,3.89-1.33,8,3.31,10.32,2.47,1.2,5.72,1.92,8.42,3a17.67,17.67,0,0,1,6.06,3.69c1.87,1.87,2.52,4.69-1,6.53a20.53,20.53,0,0,1-5.64,1.68c-9,1.78-19.82,3.43-25.47.35-4.14-2.26-3.75-6.28-6.19-9.29a18.44,18.44,0,0,0-6.32-4.38c-9.08-4.41-21-7.15-34.13-7.86-4.6-.24-9.91-.44-11.89-2.55-1.17-1.25-.85-2.88-.49-4.45,1.06-4.79,3.34-10,8.19-13.43,2.26-1.59,10.28-5.2,8.84-8q-7.5-.21-15-.15a11.51,11.51,0,0,1,3.1,1c.65.37,1.17.84,1.16,1.41,0,1.52-3.37,2.66-5.76,3.77a11.8,11.8,0,0,0-5.54,4.59,17.39,17.39,0,0,1-1.32,2.62,5.55,5.55,0,0,1-3.59,2c-2.22.32-3.64-.7-5.21-1.31-5.77-2.37-16,.19-23-1.16A28.66,28.66,0,0,1,200.3,227c-4.77-2-10.12-3.64-15.24-5.42-3.3.56-6.57,1.16-9.83,1.8a52.76,52.76,0,0,1,15.07,5.53c5.22,2.77,10.58,6,18.66,6,5.51,0,11.52-1.48,16.89-1.17,8.36.5,12.08,6.26,6.93,10.79-2,1.78-5,3.23-7.63,4.77-5.29,3-9.71,6.65-11.48,10.43s-.62,7.7,4,9.83c2.63,1.21,9.46,1.89,7.23,3.91-3.53,3.19-12.07.42-17.66-.28a48.74,48.74,0,0,0-13.55-.05c-6.22.93-12.77,2.65-18.59,1.89-4.22-.56-9.74-2-10.86-6.12-.9-3.31,1.49-7.17-.1-10.3-2.11-4.12-10.34-5.71-17.91-6.82s-15.92-2.44-18.66-6.39c-1.86-2.67-.67-6.11,2.28-9.11.36-.37.74-.73,1.14-1.09-4.28,1.49-8.5,3-12.64,4.71a16.26,16.26,0,0,0,.84,8.24c.94,2.28,2.45,4.73,1,7.4-1,1.82-3.06,3-5,4.1-2.41,1.37-5,2.77-7.49,2.86-3,.12-5.08-1.72-7.17-3.25a39.54,39.54,0,0,0-11.33-5.51c-.92.51-1.84,1-2.75,1.55q-8.65,5-16.21,10.38A31.49,31.49,0,0,1,85,263.12a22.57,22.57,0,0,1,11.82,4.93c1.77,1.31,3.49,2.71,3.76,4.49.19,1.37-.52,2.84-.59,4.24-.21,3.6,3.66,6.35,7.8,8.61,3.94,2.15,8.57,4.89,6,8.33a28.55,28.55,0,0,1-2.9,2.76c-2.92,2.85-2.92,6.2,0,8.29,3.38,2.42,10.12,3.13,12.32,6s-2.07,7.48-8.4,8.93-12.75,0-18.8,1.77c-5.79,1.7-9.08,5.76-15,7.23s-11-.17-16.3-.81a50.29,50.29,0,0,0-15.92.87c-3.12.65-6.13,1.59-9.28,2.09a18.59,18.59,0,0,1-8.41-.65,14.38,14.38,0,0,1-7.45-5A6.22,6.22,0,0,1,23,324a84.38,84.38,0,0,0-2.43,8.71c3.7,1.34,7.05,3.12,7.33,5.72s-2.54,5.35-3.6,8.05c-1.63,4.14,1,7.9,4.29,11.11s7.31,6.22,8.76,10a6,6,0,0,1-1.29,6.53c-2,2.16-5.55,3.84-8.78,5.57-.75.4-1.49.81-2.23,1.24q1.2,2.89,2.64,5.78c1.33-1,2.78-1.94,4.25-2.85,5.38-3.29,11.53-6.44,14.95-10.29,3.14-3.54,3.62-7.45,1.29-10.45-3.58-4.66-13.17-6.95-15.84-11.87s3-11.52,12.34-14.67a51.59,51.59,0,0,1,18.63-2.28,53.45,53.45,0,0,1,23.78,6.54c4.92,2.81,8.77,6.85,5.94,11.28-2.6,4.07-10.39,7.6-11.13,11.66-.65,3.41,4,5.74,8.73,7.32s10.16,3.05,12,6c1.52,2.49.17,5.58.91,8.27,2.21,7.92,20.72,9.53,27.24,16.21.85.88,1.28,2.21-.42,3a8.22,8.22,0,0,1-2.85.57c-4.32.35-9.13,1.6-11.76-.72s-2.69-5.22-5.39-7.34c-4.35-3.46-12.25-5.31-20.85-4.9s-17.78,3.06-24.23,7c-1.92,1.18-3.61,2.46-5.68,3.57-5.27,2.83-12.6,4.11-18.92,3.8a136.61,136.61,0,0,0,14.67,15.27c10.12,6,25.73,5.88,33.07,14.8,2.64,3.2,4,7.28,5.2,11.4a261.29,261.29,0,0,0,32.77,14.5c1.55-.83,2.62-1.34,2.62-1.34,4.1-1.85,6.49-4.83,5.9-7.27a2.32,2.32,0,0,1-.14-1.51,3.46,3.46,0,0,1,1.12-1.2c3.44-2.57,10-3.82,14.24-2.71,3.53.9,5.23,3.08,8.74,4,3.7.93,8.59.29,13.13-.38a52.93,52.93,0,0,1,9.27-.82c3,.09,5.78.84,6.67,2.33s-.34,3.39-.47,5.11c-.22,3.17,3.45,5.62,8.18,6.88s10.45,1.54,16.08,1.79,11.32.54,16.05,1.81a20.12,20.12,0,0,1,7.46,3.59c.71.58,1.32,1.26,1.19,2a4.47,4.47,0,0,1-1.34,1.92l-4,4.2c-.54.55-1.08,1.11-1.66,1.66,2.79.14,5.58.26,8.37.34,3.25-2.34,6.36-4.84,7.64-7.49s.31-5.61-3.57-6.74c-2.16-.61-5-.62-7.21-1.18s-4-2-2.53-3.41c.94-.94,2.89-1.52,4.67-1.93,14.27-3.33,30-2.83,43-8,7.39-3,12.75-7.39,20.19-10.33,8.72-3.48,19.89-4.41,27.72-2.31a26.44,26.44,0,0,1,8.72,4.1c3.74,2.62,6.46,5.92,5.8,9.69s-5.43,8-12.23,9.65c-5.73,1.37-11.43.69-17,.47a105.43,105.43,0,0,0-16.27.65c-4.65.54-9.54,1.44-13.46,3.3-6.52,3.08-8.72,8.07-7.34,12a7.75,7.75,0,0,0,.39.89q5-.33,10-.78a5.5,5.5,0,0,1,.6-4.07c1.75-3.11,5.8-4.63,9.25-5.32,13-2.57,24.93.54,37.85-1.54,4.58-.75,9.41-2.12,13.49-1.26a13.26,13.26,0,0,1,2.4.8q8.34-2.3,16.42-5a23.3,23.3,0,0,1-6.15-1.86,14.46,14.46,0,0,1-7.88-8.8v-1.58c.17-5.36-4.6-10.06-12.51-12.34a48.72,48.72,0,0,1-6.47-1.95c-1.84-.87-3-2.29-2.14-3.81a12.22,12.22,0,0,1,2.24-2.26c2.63-2.47,3.41-5.34,2.06-7.61-.88-1.44-2.33-3.22,0-4.56a7.87,7.87,0,0,1,5.28-.58,10.29,10.29,0,0,1,3.59,1.85A21.53,21.53,0,0,0,356,425.46c9.05.26,18-4.42,25.18-8.64q5.69-3.35,11.35-6.71c3.27-1.91,7.2-4,11.43-4.12,2.56-.07,4.61.65,7,.94a55.93,55.93,0,0,0,9.14-.05c13.09-.61,25.5,1.08,35,4.75A117.93,117.93,0,0,0,467.47,395.36ZM328.64,246.57c-.42-4.18,6.95-8.79,14.84-10.44a52.3,52.3,0,0,1,22.41.62,66,66,0,0,1,21.75,9.6c4.13,2.78,7.83,5.93,8.54,9.82a4.4,4.4,0,0,1-1.1,4,19.73,19.73,0,0,1-5.05,3.31c-4.76,2.53-9.33,5.23-12.59,8.31s-5.12,6.59-4,9.56c1.19,3.17,5.51,5.36,7.89,8.18s1.85,7.28-3.9,9.48a30.62,30.62,0,0,1-5.67,1.32,43.42,43.42,0,0,1-17.51-.74,7.63,7.63,0,0,1-4.64-4.26c-1.36-3.24-.27-7.43.72-11.36.91-3.58,1.77-7.5.4-10.51-1.14-2.53-4-3.78-5-6.42-.67-1.8-.36-4-.49-6C344.72,252.14,329.44,254.91,328.64,246.57Zm-30.49,31.82c5.28-3.9,13.92-6.16,21.85-6.8,10.92-.86,22,1.51,24,7,1.76,4.71-3.48,10.34-3.31,15.37.22,6.49,9.18,10.71,17.59,14.37l27.52,11.92c10.42,4.52,21.49,9.77,21.51,17.85a7.53,7.53,0,0,1-2.71,5.79c-3.18,2.9-9.09,4.73-14.71,5.64-10.34,1.7-16.66.3-25.92-1-1.93-.26-4.21-.52-5.22-.78-.52-.15-2.32-.36-2.32-.36-5.76-1-7.51-1.2-11.71-3.18-2.71-1.3-5-3-5.13-5.18s1.78-4.36,1.9-6.49-1.7-4.16-3.52-5.95c-2.56-2.46-5.31-5-9.86-6.3-4.77-1.42-11-1.4-16.93-1.36s-12.16.08-17-1.28-7.88-4.6-5.41-7.9c1.28-1.7,3.73-3.15,5.65-4.72,5.56-4.51,6.24-10.25,1.67-13.8-1.24-1-2.85-1.8-3.54-2.94-1-1.6-.08-3.56,1.18-5.38A18.77,18.77,0,0,1,298.15,278.39Zm12.71,107.66c1.24,2.61,2.41,5.71-1.06,8.32a22.75,22.75,0,0,1-6.63,2.93,41.49,41.49,0,0,1-10.77,2.09,41,41,0,0,1-8.62-.86c-3.86-1-8.71-4-12.38-5.06-2.6-.81-6.26-1.48-9-2.2s-4.81-2.18-4.23-4c.72-2.23,4.79-4,7.89-5.78,8-4.65,10.38-11.59,5.58-15.91-1.51-1.34-3.62-2.45-4.86-3.91s-1.4-3.45.79-5c3.75-2.7,10.54-2.13,16.06-3.33,7.7-1.66,12.38-6.72,19.77-9,7.55-2.35,15.65-1.21,22.35.24C333,346.09,340,348,345.05,351s8,7.36,6.29,12.07-8.85,9.62-17.4,11c-3.7.62-7.36.57-11.06.87s-7.79,1.1-10.4,2.83C308.73,380.27,309.61,383.47,310.86,386.05ZM162.08,339.13a33,33,0,0,0-12-7c-4.5-1.61-9.74-2.73-13.81-4.62s-7-4.84-5.53-8.19c1.3-2.93,5.82-5.62,10.88-7.16A56,56,0,0,1,157.48,310c10.27-.13,19.82,1.48,27.08,4.59,2.79,1.2,5.37,2.74,5.53,4.9.13,1.55-1,3.2-1.79,4.81-1.59,3.32-1.28,7.08,3.38,8.52,3.23,1,7.74.66,11.51,1.14s6.95,2.63,4.51,4.76a26.17,26.17,0,0,1-3.19,1.93c-3.62,2.28-3.28,5.26-3.44,7.92-.23,3.77-2,7.73-5.16,11.48a5.85,5.85,0,0,1-.86,1c-6,4.43-10.56,10.28-19.52,12.26-6.06,1.33-11.79-.32-14.89-2.74-3.78-3-4.79-7.17-2.71-11.3,2-3.93,6.58-7.78,7.54-11.7C166.27,344.44,164.6,341.57,162.08,339.13ZM214,306.31c1.7-4.65,10.86-8.82,19.29-9.39s15.63,1.95,18.89,5.71c2.7,3.11,3,6.93,4.55,10.39a22.71,22.71,0,0,0,8.15,9.26,21.65,21.65,0,0,0,7.37,3.34c6.87,1.59,15.85.14,24.16-.82a89.7,89.7,0,0,1,17.51-.64c5.54.49,10.55,1.95,13,4.54,1.72,1.79,2.85,4.78.24,6.86s-7.38,2.33-10.59,1.32a7.73,7.73,0,0,0-2-.11,67.93,67.93,0,0,0-15.77,3c-6.13,2-11.26,5.05-17.27,7.22s-13.89,3.38-18.29,1.36c-6.28-2.88-1-9.7-4.4-13.9-2.42-3-8.8-4.13-15-4.66a88.85,88.85,0,0,0-15-.14c-4.92.42-9.92,1.37-14.74,1.45a27.59,27.59,0,0,1-12.64-2.42c-2.18-1.1-3.77-2.83-2.48-4.68,1.9-2.7,8.36-3.81,11.79-6.16C215.88,314.39,212.59,310.24,214,306.31Zm-12.17,62.4c2.74-7.08,5.45-14.13,8.19-21.21,1-2.64,2.11-5.38,5-7.81,3.75-3.19,10.46-5.46,16.66-5.67s11.58,1.67,13.32,4.65c1.15,2,.81,4.29,1.11,6.45a13.17,13.17,0,0,0,5.37,8.57c1.88,1.5,4.26,3.38,2,5.29s-6.84,1.91-10.58,2.41A29.54,29.54,0,0,0,227,368.73c-3.52,3.36-5.16,7-6.73,10.59l-3.53,8a13.32,13.32,0,0,1-3.19,4.93c-3.34,3.08-10.12,5.09-16,5.1s-11.36-1.51-13.36-4.26a6.4,6.4,0,0,1-.47-1.14c-.12-2.52,1.77-4.05,4.48-6.51,1.79-1.62,4.11-3.09,6-4.7C198.63,377,200.28,372.77,201.85,368.71Zm-1.39,34.34c2.27-1.11,5.33-1.68,7.93-2.47,8.6-4.54,15.14-10.25,18.46-16.12,1.82-3.26,2.68-6.55,4.61-9.81a21.7,21.7,0,0,1,10.41-8.83,9.28,9.28,0,0,1,2.47-.73,8.77,8.77,0,0,1,3.13.34c5.86,1.45,12.17,3.23,13.41,6.83,1.05,3-1.84,6.55-5.78,9.46-3.67,2.72-8.62,5.54-8.7,8.52,0,1.89,2,3.37,4.58,4.38,5.67,2.19,13.63,2.41,20.24,3.86s12.19,5.12,9.08,9.4c-4,5.5-18.25,7.2-24.5,12.29-2.42,2-3.39,4.27-6,6.18-4.29,3.13-12.1,4.32-17.88,3.54a26.28,26.28,0,0,1-13.11-5.71c-3.25-2.55-5.94-5.37-10-7.52-3.46-1.82-7.91-3.14-10.47-5.41S195.85,405.26,200.46,403.05ZM223.85,266a6.51,6.51,0,0,1,.3-9c4.28-4.84,15-7.73,23.84-7.79s16.37,2,23.52,4.12c10.53,3.07,21.79,6.73,23.83,13.53a3.17,3.17,0,0,1-.21,2.72,11.18,11.18,0,0,1-3,2.65c-6.52,4.66-13.06,9.81-14,15-.71,3.88,1.77,7.34,5.08,10.3,1.54,1.4,3.32,3,2,4.86-1,1.33-3.33,2.34-4.71,3.6-3.2,2.92-1,6.8-5.79,9-4.16,1.91-9.7.44-10.9-1.93s.17-5.19.35-7.82c.28-4.16-2.71-7.94-8.09-10.22-3.57-1.5-8.56-3.08-7-5.88a13.71,13.71,0,0,1,1.82-2.07c3.14-3.36,2.11-7.27-2.37-9.1-5.79-1.59-10-3.61-14.94-5.79C229.64,270.51,225.94,268.55,223.85,266ZM122.33,302.22c-1.11-.65-2.11-1.44-1.91-2.45.35-1.77,4.1-3.15,5.83-4.86,2.93-2.9-.68-5.63-4.26-7.44-3.35-1.66-6.87-3.3-9-5.54-3.32-3.4-3.14-8.07.49-12.28s10.64-7.91,18.44-9.71c8.5-1.94,18.81-1.06,20.71,3.19a9,9,0,0,1,.32,3.88c-.13,6.2,4.44,12.43,14.92,13.74,6.88.88,14.9-.51,22.54-1.38a154.87,154.87,0,0,1,40.84.56c6.44,1,13.24,3.3,12,7.29-.87,2.73-5.43,5.21-10.23,6.5a74.67,74.67,0,0,1-14.81,1.87c-3.18,1.23-9.45,3.67-11.28,6-1.44,1.88-.77,3.77-.64,5.61s-.65,4.11-3.73,5.41a13.24,13.24,0,0,1-8.66.22c-2.35-.8-3.84-2.13-5.58-3.28-4.63-3.1-11.41-5.21-19.37-5.48-10.4-.37-21.93,2.36-32.24,1.83C131,305.64,125.91,304.32,122.33,302.22Zm-19.4,66.28c-2.38-1.13-5.2-3-6.5-5.47s-.15-5.48,2.94-8c3.82-3.11,10.83-6.09,10-9.27-.31-1.28-2-2.19-3.54-3q-5.86-3.09-11.74-6.22c-2.33-1.25-4.81-2.68-4.49-4.71.25-1.52,2.11-3.06,4.32-4.28,6.68-3.61,17.21-4.58,23.07-2.12,3.78,1.6,5.51,4.27,8.56,6.27,3.62,2.38,9,3.74,14.28,5s10.64,2.65,14.33,5,5.34,6,2.55,9.44c-2,2.47-6.06,4.62-7.5,7.15s-.75,5.39-4.76,6.86c-2.65,1-5.62.53-8.47.64-5.4.2-10.62,2.41-16,3.74S106.53,370.23,102.93,368.5Zm49.18,72.56c-4.79,2.4-10.53,1.46-16.35,2.27-2.48.36-4.84.1-7.31.23s-5.45.9-6.37,2.23a1.71,1.71,0,0,0,0,2c.83,1.37,2.57,2.42,3.56,3.72s1.08,3.13-1,4.45c-2.52,1.61-6.76,1.66-9.7,1-8.82-1.93-11.64-7.69-12.73-13.13s-1.38-11.38-7.42-15.19c-5.24-3.32-13.9-4.42-21.27-6.35s-14.16-5.5-12.61-10.51c.8-2.53,3.64-5,7-7.18a49.74,49.74,0,0,1,18.61-7.32c7.07-1.19,14.58-.44,18,2.39,2.28,1.88,2.64,4.43,3.7,6.71s3.25,4.56,7.54,5c5.7.6,12.5-2.26,18.46-2.07,6.28.19,9.2,3.54,11.3,6.58,2.94,4.21,5.85,8.42,8.78,12.63,1.33,1.92,2.68,3.87,2.69,6.07S155.5,439.36,152.11,441.06Zm4.22-24.39c-2.19-8.57-9.73-16.06-21.23-21.06-5.9-2.56-12.88-4.51-17.25-7.89s-5.33-8.78.7-12.82c6.23-4.19,17.11-5,24.67-3.46s12.93,4.76,19.37,7.2a17.14,17.14,0,0,0,6.72,1.33c6.71-.19,11.55-5.9,18.4-6.82.74-.11,2.85-.21,3.48.78,1.08,1.8-2.32,5.9-5,8.28s-6.54,4.38-9.55,6.67-5.16,5.21-3.46,7.29c2.62,3.28,12.89,2.78,15,6.21,2,3.22-4.55,7.27-5.3,11-1,5,8.5,8.48,4.89,13.45-2,2.7-7.57,4.69-12.52,4.9a21.48,21.48,0,0,1-12.05-2.85,12.62,12.62,0,0,1-5-5.26C157.14,421.39,156.93,419,156.33,416.67Zm132.67,28c-7.81,5.89-20.74,9.47-32.74,10.53-9.35.83-19.67.62-27.51,4.39-1.73.81-3.24,1.81-5.1,2.52-3.54,1.36-7.74,1.5-11.51,1.42-5.72-.13-11.86-.86-13.84-3.59-1.46-2-.24-4.6.35-7s.19-5.1-3.36-6-8.22.25-12.51.92a50.91,50.91,0,0,1-16.35,0c-4.59-.83-8.78-2.82-8-5.73.7-2.54,5.17-4.9,9.8-5.87a44,44,0,0,1,13.55-.35l1.24-.31c5.3-2.2,9.3-5.48,10.72-8.77.67-1.57.81-3.15,1.95-4.69a9.14,9.14,0,0,1,6.55-3.22,6,6,0,0,1,5.84,3.28c2.27,3.88,4.6,7.86,9.52,10.69s13.07,4.28,21.09,2.41c5-1.17,9.24-3.43,13.84-5.21a70.15,70.15,0,0,1,23.57-4.6c4.77-.08,9.43.4,12.95,1.74C297.72,430.52,296.82,438.76,289,444.65Zm96.34-37.81c-1.82,2.79-5.43,5.31-9.2,7.64a33.78,33.78,0,0,1-8.92,4.14,32.09,32.09,0,0,1-12.44.56,31.42,31.42,0,0,1-9.68-2.81c-2.42-1.2-4.48-2.76-7.85-3.18-5.6-.74-13.32,2.72-13.56,6.07-.21,2.92,4.17,4.93,3.78,7.86-.34,2.55-4.17,5-7.75,7.09-2.52,1.49-5.44,3.11-8.77,3.4a8.73,8.73,0,0,1-7.09-2.18c-1.29-1.39-1.66-3.08-2.42-4.65-1.48-3-4.55-5.54-8.79-7.35l-.89-.16c-4-2.58-12.35-1.42-19.18-1.38-1.44,0-3.09-.13-3.36-.87-.13-.36.12-.77.41-1.14,3.63-4.46,15.56-6.61,17.89-11.17.68-1.31.4-2.66,1.52-3.92,1.67-1.9,5.81-2.91,9.38-3.23s7.1-.19,10.65-.93c5-1.05,9.17-3.88,9.81-6.61.92-3.92-4.69-7.13-1.85-11,1.75-2.38,6.26-4.13,10.64-5s8.78-1.06,13.19-1.61a70.87,70.87,0,0,1,8.48-.87c5.63-.06,9.82,1.87,13.37,3.84a87.34,87.34,0,0,1,18.36,13.28C385.29,396.7,388.79,401.61,385.34,406.84Z" style="fill:#fff"></path></g><path d="M469.34,307.2c-11-19-29.58-36.77-55.73-51.86-90.34-52.13-236.82-52.13-327.16,0C28.06,289,7.43,336.25,24.51,379.52A107.34,107.34,0,0,0,46.79,377c43.34-10.15,73.65-53.42,118.12-57.1,32.19-2.66,64.14,16.66,95.64,9.8,17.68-3.85,32.37-15.48,49.52-21.1,36.94-12.12,76.93,5.31,116,5.63A132.44,132.44,0,0,0,469.34,307.2Z" style="fill:#0565FF;opacity:0.2"></path><path d="M86.45,255.34C40.51,281.85,18,316.73,18.73,351.47c20.23-3.05,40-8.45,56.18-20.07,15.48-11.13,27.25-27.71,45.55-33.89,17.36-5.87,36.87-1,54.79-5.06C194.78,288,210,273.6,228.34,265.88a82.56,82.56,0,0,1,49.79-4.27C296,265.7,312.6,275.8,331,275.73c13.77-.06,26.82-5.89,40.52-7.25,14.59-1.46,29.15,2.2,43.77,3.36a127.36,127.36,0,0,0,22.35-.23,194.39,194.39,0,0,0-24-16.27C323.27,203.21,176.79,203.21,86.45,255.34Z" style="fill:#0565FF;opacity:0.2"></path><path d="M265.8,234.13c18.51,3.36,35.64,12.52,54.39,14.27s37.6-4.09,56.54-4a101.07,101.07,0,0,1,20.14,2.19C306,203.4,171.41,206.32,86.45,255.34,44,279.82,21.53,311.44,19,343.5c11.73-4.81,23.6-9.36,31.87-18.36,9.18-10,12.4-24.08,21.93-33.79,10.91-11.12,27.94-14.44,43.9-15.47s32.45-.44,47.35-6c16.17-6,28.61-18.49,43.68-26.64A89.92,89.92,0,0,1,265.8,234.13Z" style="fill:#0565FF;opacity:0.2"></path></g></g><g id="freepik--Shadow--inject-46"><path id="freepik--shadow--inject-46" d="M182.88,267.92l141.34,81.6c23.13,13.36,42.36,32.85,54.21,56.79,7.79,15.74,11.2,31.48-.73,38.37-9.28,5.35-27.83,5.35-48.45,3-49-5.66-96.13-22.18-138.86-46.84L75.55,334.5a2.67,2.67,0,0,1,0-4.62Z" style="opacity:0.2"></path></g><g id="freepik--Clouds--inject-46"><path id="freepik--Cloud--inject-46" d="M335,42.92c0-3.26,3.58-5.53,7.63-5.91,4.77-.45,8.15,1.68,8.27,5.43,3.12-1.28,6.41-.46,6.16,3,.81-.93,3.85-.9,4.94-.64a4.27,4.27,0,0,1,2.72,2.31,3.15,3.15,0,0,1,.28,1.76c1.82-.6,6-1,7,.71,1.84,3-5.51,3.06-7,2.16-.31,2.31-8.22,2.69-10.14.56-1.49,1.51-3.64,1.84-6,2-3.91.23-6.31-1.09-9.36-2.65-3.32,2.81-9.06,2.86-12.05-.36-.76.72-2.87.95-4.55.54-1.1-.26-1.36-.73-1.36-.73a9.67,9.67,0,0,1-2,.61c-2.17.45-6.2,0-4.51-2a5.05,5.05,0,0,1,3.58-.88c.95-1.86,4.75-3.63,6.93-2,.08-2.26,2.14-4,5-4.47C331.52,42.13,333.86,42,335,42.92Z" style="fill:#f0f0f0"></path><path id="freepik--cloud--inject-46" d="M397.31,67.82a9,9,0,0,1,2.95-.48c.95-.06,1.25-.24,1.44-.44a7,7,0,0,1,8.47-2.32,5.39,5.39,0,0,1,6.42-3.47c0-3,3.79-6.06,7.2-6.72s6.1-.28,7.92,1.9c2.06-3.85,9.88-4.79,14.05-2.65,2.41,1.23,4.44,2.48,5.4,4.72A9.29,9.29,0,0,1,452,62.8c1.67-1.42,5-1.74,7.15-.85,2.35,1,2.49,2.75,2.57,4.57a8.27,8.27,0,0,1,4.31,0c1.49.47,2.32,1.66,2.1,2.6,1.18,0,4,1,3.62,2.21-.39,1.39-3.59,1.19-4.79,1.12a22.57,22.57,0,0,1-3.35-.6,4.91,4.91,0,0,1-1.75.3c-2-.05-2.89-1-3.2-1.71-1,2.08-4.62,3.61-7.15,4.2-4.75,1.12-11.42.25-14.26-3.34A5.35,5.35,0,0,1,435.8,73a8.14,8.14,0,0,1-4.41,1.68c-1.94.15-7.16.29-8.56-2.82-1.08,2-5.74,2.87-9.25,2.3a14.36,14.36,0,0,1-3.93-1.27,21.32,21.32,0,0,1-2.24-1.4,1.89,1.89,0,0,0-1.93-.17,11.57,11.57,0,0,1-7.7-.16C395.82,70.28,395.44,68.63,397.31,67.82Z" style="fill:#f0f0f0"></path></g><g id="freepik--Sun--inject-46"><circle id="freepik--sun--inject-46" cx="90.54" cy="73.63" r="20.31" style="fill:#f0997a"></circle></g><g id="freepik--Birds--inject-46"><g id="freepik--birds--inject-46"><path d="M105.06,132.38c-5.33-.89-10,4.29-12.41,10.56-4-3.33-12.78-6.37-16.19-1.64,5.29-3,11.7-.66,15.89,3.17.29.23,1.06.43,1.25-.18C95.75,137.41,100.41,133.12,105.06,132.38Z" style="fill:#455a64"></path><path d="M78.37,153.71c-4.07-1-7.88,4-8.94,7.95-2.89-2.82-7.53-5.9-11.37-3.34,4.72-1.15,8,1.29,11,4.51.21.2.86.42,1-.06C71.19,158.15,74.73,154,78.37,153.71Z" style="fill:#455a64"></path></g><g id="freepik--birds--inject-46"><path d="M405.23,182c5.33-.88,10,4.3,12.41,10.57,4-3.34,12.78-6.37,16.19-1.64-5.29-3-11.7-.66-15.89,3.16-.29.24-1.06.44-1.25-.17C414.54,187,409.88,182.71,405.23,182Z" style="fill:#455a64"></path><path d="M431.92,203.3c4.07-1,7.88,3.95,8.94,7.95,2.89-2.83,7.53-5.9,11.37-3.34-4.72-1.15-8,1.28-11,4.51-.21.2-.86.42-1-.06C439.1,207.74,435.56,203.59,431.92,203.3Z" style="fill:#455a64"></path></g></g><g id="freepik--Character--inject-46"><g id="freepik--Sailboat--inject-46"><path d="M391.91,407.93C378,416,362.26,421,346.57,424c-46.73,9-95.14-.55-136.34-24.34L89.45,330A9,9,0,0,1,85,322.23V295.17S447.71,375.72,391.91,407.93Z" style="fill:#37474f"></path><path d="M199.46,378.88c42.33,24.44,89,40.9,137.49,46.74-43.7,6-88.33-3.76-126.73-25.92L89.45,330A9,9,0,0,1,85,322.23v-9.44Z" style="fill:#0565FF"></path><path d="M199.46,378.88c42.33,24.44,89,40.9,137.49,46.74-43.7,6-88.33-3.76-126.73-25.92L89.45,330A9,9,0,0,1,85,322.23v-9.44Z" style="opacity:0.30000000000000004"></path><path d="M392.64,369.47c-11.88-24-31.16-43.54-54.35-56.93l-141.7-65.7-92.87,53.62L85,295.17,204.13,364c42.83,24.73,90.08,41.28,139.21,47,20.66,2.38,39.26,2.38,48.57-3C403.86,401,400.45,385.25,392.64,369.47Z" style="fill:#37474f"></path><rect x="170.86" y="319.15" width="104.74" height="0.96" transform="translate(-129.96 154.55) rotate(-30.02)" style="fill:#263238"></rect><rect x="139.57" y="301.08" width="104.74" height="0.96" transform="translate(-125.13 136.5) rotate(-30.02)" style="fill:#263238"></rect><rect x="233.45" y="355.31" width="104.74" height="0.96" transform="matrix(0.87, -0.5, 0.5, 0.87, -139.66, 190.73)" style="fill:#263238"></rect><polygon points="115.54 310.08 206.25 257.71 206.25 257.71 209.43 255.88 208.95 255.05 115.06 309.25 115.54 310.08" style="fill:#263238"></polygon><rect x="217.8" y="346.27" width="104.74" height="0.96" transform="translate(-137.24 181.7) rotate(-30.02)" style="fill:#263238"></rect><polygon points="224.59 264.08 130.7 318.29 131.19 319.12 221.9 266.75 221.9 266.75 225.07 264.92 224.59 264.08" style="fill:#263238"></polygon><rect x="155.22" y="310.12" width="104.74" height="0.96" transform="translate(-127.55 145.54) rotate(-30.02)" style="fill:#263238"></rect><rect x="186.51" y="328.19" width="104.74" height="0.96" transform="translate(-132.33 163.47) rotate(-30)" style="fill:#263238"></rect><path d="M378.35,357.13l-.48-.83-80,46.18,1.35.34Z" style="fill:#263238"></path><path d="M397.78,382.06l-.3-.95-52,30,1.62.18Z" style="fill:#263238"></path><path d="M391.63,367.53l-.44-.85-70.68,40.8,1.47.26Z" style="fill:#263238"></path><rect x="202.16" y="337.23" width="104.74" height="0.96" transform="translate(-134.82 172.66) rotate(-30.02)" style="fill:#263238"></rect><path d="M362.7,348.09l-.48-.83L277,396.45l1.24.4Z" style="fill:#263238"></path><path d="M347.06,339.06l-.48-.84-89,51.36,1.15.45Z" style="fill:#263238"></path><ellipse cx="279.24" cy="350.1" rx="51.68" ry="29.84" style="opacity:0.2"></ellipse><path d="M387.8,372.26c7.17,14.49,10.48,28.89,1.75,36.51,8.92-9.28-5.76-34.67-25.16-53.37-21.65-20.85-47.7-33.71-73.74-48.73l-98.89-57V233.52l141.69,81.81C356.64,328.72,375.93,348.26,387.8,372.26Z" style="fill:#263238"></path><path d="M191.76,233.52,85,295.17,204.13,364c42.83,24.73,90.07,41.28,139.2,47,20.67,2.39,39.27,2.39,48.57-3,12-6.9,8.55-22.68.74-38.46-11.88-24-31.16-43.54-54.35-56.93L196.6,230.73l-4.84,2.79,144.12,83.19c23.15,13.37,41.29,32.35,52.44,54.9,8.39,16.94,8.79,27.76,1.18,32.15-3.06,1.76-9.49,3.87-22.82,3.87a203.12,203.12,0,0,1-22.79-1.5c-47.35-5.46-93.56-21.05-137.35-46.34L89.77,292.41Z" style="fill:#455a64"></path><path d="M221,28.81a2.27,2.27,0,0,1,1.31-1.8,7.08,7.08,0,0,1,6.4,0,2.28,2.28,0,0,1,1.32,1.8h0V319.9h0a2.25,2.25,0,0,1-1.32,1.79,7.05,7.05,0,0,1-6.39,0A2.23,2.23,0,0,1,221,319.9h0V28.81Z" style="fill:#0565FF"></path><path d="M230.05,28.81c0,1.41-2,2.56-4.53,2.56S221,30.22,221,28.81s2-2.56,4.52-2.56S230.05,27.4,230.05,28.81Z" style="fill:#fff;opacity:0.30000000000000004"></path><polygon points="235.62 65.09 235.62 286.46 314.14 330.93 235.62 65.09" style="fill:#ebebeb"></polygon><path d="M217.75,36.05V313.17c-44.91-53.1-113.16-57.64-113.16-57.64Z" style="fill:#ebebeb"></path></g><g id="freepik--character--inject-46"><g id="freepik--Bottom--inject-46"><path d="M277.37,267.77c2,7.42,22.65,10.25,34.84,2.88s22.5-1.17,33.75-4.61,16.51-26.11,26.82-27.27c17.74-2,23.33-10,14.82-18.28s-20.66-9.29-34.39-3.77-19.58,25.79-34.51,24.45S273.61,245.39,277.37,267.77Z" style="fill:#0565FF"></path><path d="M277.37,267.77c2,7.42,22.65,10.25,34.84,2.88s22.5-1.17,33.75-4.61,16.51-26.11,26.82-27.27c17.74-2,23.33-10,14.82-18.28s-20.66-9.29-34.39-3.77-19.58,25.79-34.51,24.45S273.61,245.39,277.37,267.77Z" style="fill:#fff;opacity:0.1"></path><path d="M373.72,234.5a70,70,0,0,0-6.4-4.86c-2.2-1.53-4.46-3-6.74-4.38q-6.84-4.23-13.85-8.19a68.18,68.18,0,0,1-13.22-9.32c-3.9-3.7-7.38-8.07-9.16-13.18a30,30,0,0,0,4.19,6.81,43.09,43.09,0,0,0,5.52,5.78,71.84,71.84,0,0,0,13.19,9c4.64,2.72,9.28,5.44,13.76,8.42A81.25,81.25,0,0,1,373.72,234.5Z" style="opacity:0.2"></path><path d="M349.72,257.19a34.66,34.66,0,0,0-2.16-6.19c-.86-2-1.78-4-2.77-6-2-3.91-4-7.79-6.23-11.56s-4.48-7.53-6.9-11.18c-1.2-1.84-2.47-3.62-3.75-5.39l-2-2.64c-.7-.84-1.39-1.7-2.08-2.56a76.61,76.61,0,0,1,8.46,10.13c2.57,3.59,4.9,7.33,7.15,11.12s4.23,7.72,6,11.74S349.1,252.81,349.72,257.19Z" style="opacity:0.2"></path><path d="M330.93,246.68A253.91,253.91,0,0,0,332.41,214c-.25-12.76-1.29-24.82-1.29-24.82-5.81,8.77-20.65,21.41-20.65,21.41l-21.7-1.81s6.28,26.78,9.88,42.08c-8.2,4.52-13.16,9.92-18.8,19.61-3.64,6.25-6.2,11-10.08,18.3-2,3.78-4.85,8.58-7,10.38l-.24.18,0,0c-1.73,1.24-4.34,1.66-6.8,3.65l0,0a5,5,0,0,0-1.54,5.31c.08.27.16.53.22.83.28,1.34,1.45,3.92,1.52,6.5.07,2.38-1.3,5.12-2.42,8.15s-1.05,4.89.34,7.69c1.08,2.18,5.48,7.65,9.46,9.5,6.37,2.94,8.62,1.14,8-2s-1.85-5.76-2.27-8.06a19,19,0,0,1,0-8.14,90.92,90.92,0,0,1,3.45-10c.93-2.54,1.17-4.83,10.65-12.23,0,0,25.24-18.17,32.54-24.08C329.41,265.32,329.24,263.27,330.93,246.68Z" style="fill:#b16668"></path><path d="M325.65,208.29l-10.14-2.18h0l-1,.91-.17.14c-.62.57-1.18,1.08-1.68,1.52l-.11.1-1.24,1.09-.08.07-.4.35h0l-.26.23,0,0-.07.05-15.31-1.28-3.65-.3.88,5.9c1.15,7.66,2.61,17.42,3.86,25.7.86,3.67,1.68,7.19,2.4,10.25-8.2,4.52-13.16,9.92-18.8,19.61-1.48,2.55-2.79,4.85-4.08,7.18-.79,7.86-.74,20.36,1.13,28.24a68.79,68.79,0,0,1,6.26-5.39s14.44-10.4,24.64-18c3.88-17.79,7.44-43.33,7.56-59.61C322.87,218.18,324.59,213.13,325.65,208.29Z" style="fill:#9a4a4d"></path><path d="M254.25,304a3.72,3.72,0,0,0-2.22,2c-.55,1.69,0,4.66.88,7.49s1.16,4,.34,6.09a19.51,19.51,0,0,0-1.88,8.59c.12,3.91,1.6,9.06,7.13,13.62,4.53,3.73,8.64,3.77,10.22,3.56s2-2.36,2-2.36Z" style="fill:#263238"></path><path d="M262.88,299.08a5.87,5.87,0,0,0-1.27,3.19c-.52,3.09,2.31,7.87,3.17,9a3.17,3.17,0,0,1,2.51-.75c2,.09,5.54.58,5.85,1.49s-3,7.17-3.74,11.9A20.45,20.45,0,0,0,270.82,335c1.09,2.5,3,5.92-.59,8.74-2.05.48-10.34-1-14.89-8.31-4-6.48-1.76-12.84-.49-16.09s-.11-6.13-.88-10.24c-.33-1.8-.71-3.15.28-5.14,2.35-2.65,5.8-4.07,7.41-5A1.3,1.3,0,0,1,262.88,299.08Z" style="fill:#37474f"></path><path d="M255.34,335.45c.74-1.86,3.89-4.33,7.79-4.91,4.8-.72,6.41.33,7.39,2,.8,1.37,5.17,9.22-.09,11.37C268.71,344.84,260.6,344.42,255.34,335.45Z" style="fill:#fafafa"></path><path d="M264.78,311.23a1.68,1.68,0,0,1,.54,1.07,3.92,3.92,0,0,1-.22,1.19c-.25.74-.47,1.47-.69,2.22-.46,1.47-.89,3-1.26,4.45a43.45,43.45,0,0,0-.88,4.52,21.58,21.58,0,0,0-.12,4.62,14.1,14.1,0,0,1-.42-4.67,25.25,25.25,0,0,1,.71-4.65,40.58,40.58,0,0,1,1.39-4.47c.28-.73.59-1.46.9-2.16a4.06,4.06,0,0,0,.37-1.06A1.8,1.8,0,0,0,264.78,311.23Z" style="fill:#263238"></path><path d="M261.28,328.07c1.91-.69,7-.67,8,1l.07.55a2.5,2.5,0,0,0,0-1.66c-.29-1-3.7-2.26-8.09-1.05C260.8,327.29,260.7,328.22,261.28,328.07Z" style="fill:#fafafa"></path><path d="M261.67,324.09c1.86-.8,6.55-.91,7.61.68l0,.44a1.43,1.43,0,0,0,.17-1.5c-.34-1-3.5-2.26-7.81-.81C261.15,323.34,261.1,324.27,261.67,324.09Z" style="fill:#fafafa"></path><path d="M262.43,320.08c1.91-.63,6.65-.56,7.57,1.13l-.15.52a1.81,1.81,0,0,0,.45-1.41c-.17-1.07-3.48-2.5-7.85-1.44C262,319.28,261.85,320.21,262.43,320.08Z" style="fill:#fafafa"></path><path d="M263.24,316.68c1.91-.63,7-.6,7.89,1.09l-.17.53a2.1,2.1,0,0,0,.47-1.5c-.18-1.06-3.78-2.38-8.15-1.32C262.79,315.88,262.66,316.81,263.24,316.68Z" style="fill:#fafafa"></path><path d="M309.41,250.36,313,219.3s7.86-.59,14.89-10.09c3.5-4.73,4.45-18.17,2.54-27.29,0,0-3.71,3.45-18.44,4-15.71.59-25.49-4.41-25.49-4.41-.84,2.93-5,8.9-7.76,18.26A48.8,48.8,0,0,0,276.45,216c.34,7.85.36,8.63,1.09,20.32.84,13.4,2.52,33.74,2.52,33.74-2.61,8.47-2.75,13.21-1.26,31.94.65,8.17,1.49,17.55,1.79,22.33s.4,8.89.13,10.2c-1.14,5.45-5.2,12.21-.57,16.66.91.88,2,1.54,3,2.35,3.19,2.61,5,6.51,7.79,9.55a21.84,21.84,0,0,0,7.44,5.23,13.44,13.44,0,0,0,3.56,1.32,32.19,32.19,0,0,0,4.91.12,8.25,8.25,0,0,0,3-.53,3.4,3.4,0,0,0,2-2.11,3.54,3.54,0,0,0-.73-2.95,12.26,12.26,0,0,0-2.28-2.15l-.34-.29c-1.47-1.22-2.8-2.59-4.27-3.81a25.09,25.09,0,0,1-4.06-4.05c-2.1-2.77-2.57-5.64-3.47-9-.12-.44-1.6-2.21-1-7.92,1.33-12.52,5.7-35.5,7.08-45C304.59,279.4,308.09,258.53,309.41,250.36Z" style="fill:#b16668"></path><path d="M276.44,347.47a6,6,0,0,0-.45,3.69c.56,1.06,1.57,2,4.06,3.86a11.13,11.13,0,0,1,4.06,5.67,22.23,22.23,0,0,0,3.42,5.64c2.64,3.19,6.93,5.39,14.46,6.2,4.71.51,8.83-.75,10.05-1.91a3.45,3.45,0,0,0,1.08-2.63Z" style="fill:#263238"></path><path d="M279.67,335.32c.11-.7.89-1.34,1.1-1.05-.06.76-.5,2.77-.09,3.6a12.12,12.12,0,0,0,6.31,5.42s-.12-.82,1.71-1.18,6.49-1.28,7.32-.69,1,5.32,3.36,9.8a25,25,0,0,0,8.86,9.27c2.49,1.46,5.16,4.11,4.57,7.55-3.33,3.34-10.74,2.61-15.15,1.54-7.81-1.88-10.58-7.31-12.32-10.57s-2.4-3.82-5.61-6.87c-1.4-1.33-2.91-2.36-3.29-4.67C276.54,342,278.72,341.39,279.67,335.32Z" style="fill:#37474f"></path><path d="M293.5,368c0-2.91,2-6.34,6.87-7.91s6.75-.76,8.21.05,6.45,4.33,4.43,8.05C312.12,370.1,302,372.72,293.5,368Z" style="fill:#fafafa"></path><path d="M287,343.29a1.83,1.83,0,0,1,1.12.58,3.8,3.8,0,0,1,.55,1.15l.79,2.33c.52,1.55,1.07,3.08,1.68,4.59a42.14,42.14,0,0,0,2.07,4.41,22.26,22.26,0,0,0,2.75,4,14.74,14.74,0,0,1-3.26-3.73,26.35,26.35,0,0,1-2.27-4.42,41.07,41.07,0,0,1-1.59-4.69c-.22-.79-.42-1.61-.57-2.41a4.5,4.5,0,0,0-.34-1.13A1.93,1.93,0,0,0,287,343.29Z" style="fill:#263238"></path><path d="M293.84,359.44c1.64-1.23,8.34-3,10.33-2l.44.39a2.4,2.4,0,0,0-1-1.32c-.89-.71-6.49-.51-10.47,2C292.89,359,293.31,359.77,293.84,359.44Z" style="fill:#fafafa"></path><path d="M291.75,356c1.64-1.22,7.48-2.74,9.47-1.76l.35.44a2,2,0,0,0-.89-1.38c-.89-.71-5.63-.77-9.61,1.75C290.8,355.5,291.22,356.28,291.75,356Z" style="fill:#fafafa"></path><path d="M290.49,352.43c1.68-1.18,6.81-2.51,8.77-1.48l.24.49a2,2,0,0,0-.61-1.3c-.81-.8-5-1.09-9.06,1.31C289.55,352,290,352.74,290.49,352.43Z" style="fill:#fafafa"></path><path d="M289.22,349.35c1.68-1.18,6.81-2.51,8.77-1.47l.18.52a1.87,1.87,0,0,0-.54-1.34c-.81-.79-5-1.09-9.07,1.32C288.28,348.87,288.68,349.67,289.22,349.35Z" style="fill:#fafafa"></path><path d="M376.51,209.77c-6.4-3.21-13.31-5.25-19.9-8-5.42-2.28-11.4-4.6-16.31-7.83-4-2.63-8.33-7.39-9.82-12-13.76,6.78-27.65,5.31-43.94-.38-.59,1.66-4.6,8.28-7.15,14.11a60.37,60.37,0,0,0-5.13,19.17c-1.73,15.25-1.24,37.67,3.11,53,.12-5.87,2.18-12,6.76-15.66s10.52-4.34,16.16-3.79,11.12,2.29,16.72,3.21a18,18,0,0,0,8.57-.18c4.82-1.58,7.79-6.25,10.53-10.52,3.81-6,8-11.81,13.58-16.13,12-9.23,36.43-10.18,41.64,1.7C391.23,219.93,382.9,213,376.51,209.77Z" style="fill:#0565FF"></path><path d="M376.51,209.77c-6.4-3.21-13.31-5.25-19.9-8-5.42-2.28-11.4-4.6-16.31-7.83-4-2.63-8.33-7.39-9.82-12-13.76,6.78-27.65,5.31-43.94-.38-.59,1.66-4.6,8.28-7.15,14.11a60.37,60.37,0,0,0-5.13,19.17c-1.73,15.25-1.24,37.67,3.11,53,.12-5.87,2.18-12,6.76-15.66s10.52-4.34,16.16-3.79,11.12,2.29,16.72,3.21a18,18,0,0,0,8.57-.18c4.82-1.58,7.79-6.25,10.53-10.52,3.81-6,8-11.81,13.58-16.13,12-9.23,36.43-10.18,41.64,1.7C391.23,219.93,382.9,213,376.51,209.77Z" style="fill:#fff;opacity:0.6000000000000001"></path></g><g id="freepik--Top--inject-46"><path id="freepik--Hair--inject-46" d="M323.51,141.17l.92.14a12,12,0,0,0,6-.55c1.82-.75,3-2.26,4.87-3.1a50.56,50.56,0,0,1,6.12-2.3c1.56-.46,2.76-.5,4.07-1.57,2.4-1.95,4.09-5.14,3.46-8.28a22.31,22.31,0,0,0,7.47-.67,9,9,0,0,0,5.68-4.6c1-2.15.76-4.64,1.5-6.87a5.88,5.88,0,0,1,4.51-4.2c2.16-.26,4.49,1.68,4.1,3.81A8.3,8.3,0,0,0,366,102.22c-5.31-1.07-10.66,3.11-15.95,1.93a4.94,4.94,0,0,1-2.33-1.13,6.88,6.88,0,0,1-1.45-2.34c-1.74-4-3.75-8.33-8-10.11a29.65,29.65,0,0,0-8.74-1.63c-2.61-.25-5.5-.49-7.88-1.69A29.94,29.94,0,0,0,315,84.83a22.79,22.79,0,0,0-12.25.68A16.92,16.92,0,0,0,295,91a12.69,12.69,0,0,0-2,4c-.11.32-.94,4.81-.44,4.68a8.44,8.44,0,0,0-5.62,6.44,12.84,12.84,0,0,0,.61,5,11,11,0,0,1,.75,4.5,14,14,0,0,1-.69,2.37c-1.09,3.37-.6,7.5,2.1,9.78,1.62,1.37,3.92,2,5,3.83a13.46,13.46,0,0,1,1.05,3.33,10,10,0,0,0,8.69,7.07c3.8.28,7.44-1.66,11.25-1.83C318.33,140,320.91,140.75,323.51,141.17Z" style="fill:#37474f"></path><path d="M390.35,92.8c.84-.68,1.47.13,1.22,1.1-.58,2.29-3.21,3.49-4.1,4.78-.19.34-2,5.18-1.66,6.18.75-.91,2.89-4,3.69-4.85.23-.25,1-.82,3.24-2.53a4.2,4.2,0,0,1,1.25-.77c.35-.06,1,.42.74,1.33-.42,1.61-2.24,2.47-3.35,3.72-.55.59-2.2,2.57-2.15,4.24,1.77-1.63,3.13-2.22,6.44-3.51.39-.15.55,0,.65.26a1.44,1.44,0,0,1-.22,1.3c-.65.91-2,1.36-3.31,2.24a10.2,10.2,0,0,0-3,3.74,4.46,4.46,0,0,0-.47,1.71,21.25,21.25,0,0,0,.13,2.26,7.52,7.52,0,0,1-4.56,7.08,1.14,1.14,0,0,1-.57.11c-.34-.06-.54-.41-.69-.72-1.4-3.1-1.32-6.62-1.66-10-.11-1.11-.78-9.48-.75-9.79,0-.13,6.31-5.71,6.52-5.85C388.36,94.39,389.54,93.44,390.35,92.8Z" style="fill:#9a4a4d"></path><path d="M337.35,134.56c2.81.15,24.81,1.46,24.81,1.46s11.14-13.79,13.29-16.9c3-4.27,2.9-7.79,2.87-10.87-.06-4.43.44-4.89,1.67-6.84.77-1.2,2.3-4.33,2.36-4.43a3.79,3.79,0,0,1,1.06-1c.2-.18,1.08-.85,1.29-1,1.21-.94,2-1.45,3.23-2.39a6.19,6.19,0,0,1,1.18-.78.43.43,0,0,1,.29-.07c.19,0,.29.24.34.43a3.36,3.36,0,0,1-.67,2.63,11.84,11.84,0,0,1-2,2c-.44.37-.7.54-1.57,1.31a2.65,2.65,0,0,0-.72,1.18,31.35,31.35,0,0,0-1.8,6.45,11.06,11.06,0,0,0,3.48-4.72c.65-1.75,2.46-.7,2.22,1.73-.27,2.8-2.07,4-2.35,7.72s3.45,5.52.72,9.68a59.43,59.43,0,0,0-4.48,6.82c-1.94,3.58-8.72,18-10.34,20.48-3.52,5.49-3.84,5.44-16.85,5.22-18.34-.32-21.71-.76-21.71-.76l-10.95-17.66C326.15,134.21,327.89,134.06,337.35,134.56Z" style="fill:#b16668"></path><path d="M383,105.64a13.27,13.27,0,0,0-2.05,2.85c-.19.42-.53-.6.35-2.23s2.06-2.07,2.16-2.68Z" style="fill:#9a4a4d"></path><g id="freepik--Dress--inject-46"><path d="M331.84,146.49c-5.67-9-9.09-12.34-9.09-12.34a35.18,35.18,0,0,0-3.56-.22c-1.7,0-3.13.66-6.78.43-6-.39-17.24,1.81-17.24,1.81l-5.27.88c-4.43,1.83-8,8-6.28,25.23.52,5,2.89,12.9,2.92,14.81s.07,3.37,0,4.42c16,6.34,29.93,6.76,43.93.41,0,0,0-1.88.29-4.3.31-2.83.89-6.4,1.15-8.47,0,0,4.89-3.17,5.27-8.34C337.51,156.31,336.29,153.55,331.84,146.49Z" style="fill:#0565FF"></path><path d="M331.84,146.49c-5.67-9-9.09-12.34-9.09-12.34a35.18,35.18,0,0,0-3.56-.22c-1.7,0-3.13.66-6.78.43-6-.39-17.24,1.81-17.24,1.81l-5.27.88c-4.43,1.83-8,8-6.28,25.23.52,5,2.89,12.9,2.92,14.81s.07,3.37,0,4.42c16,6.34,29.93,6.76,43.93.41,0,0,0-1.88.29-4.3.31-2.83.89-6.4,1.15-8.47,0,0,4.89-3.17,5.27-8.34C337.51,156.31,336.29,153.55,331.84,146.49Z" style="fill:#fff;opacity:0.6000000000000001"></path><path d="M355.28,212.24a104.51,104.51,0,0,1-11.85-5.37,44,44,0,0,1-10.42-7.6,56.69,56.69,0,0,1-8-10.22,52.61,52.61,0,0,0,3.33,5.65,44.23,44.23,0,0,0,4.14,5.13,42.26,42.26,0,0,0,10.49,8A91.09,91.09,0,0,0,355,213c2.06.72,4.14,1.39,6.23,2s4.18,1.22,6.21,2C363.51,215.13,359.3,213.88,355.28,212.24Zm-31.64,18.64c-.86-1.75-1.69-3.51-2.39-5.33a99.65,99.65,0,0,1-3.7-11.06c-1-3.75-1.85-7.57-2.54-11.4-.34-1.92-.64-3.85-.88-5.79s-.45-3.87-.61-5.83a72.09,72.09,0,0,0,.7,11.74,87.17,87.17,0,0,0,2.33,11.55,74.16,74.16,0,0,0,4,11.11,50.22,50.22,0,0,0,6,10.13c-.49-.85-1-1.69-1.48-2.53S324.09,231.74,323.64,230.88ZM290.71,215c-.78,4.06-1.46,8.14-1.9,12.24a94.49,94.49,0,0,0-.61,12.36c.17-2.06.34-4.11.61-6.15s.5-4.08.8-6.11c.6-4.06,1.26-8.11,2.12-12.13s1.76-8,2.85-12c.53-2,1.16-3.94,1.8-5.89l1-2.91c.39-1,.76-1.91,1.13-2.87A68,68,0,0,0,293.81,203C292.55,206.93,291.58,211,290.71,215Z" style="fill:#0565FF;opacity:0.4"></path><path d="M286.54,177.09s9.14,8.09,26.9,6.68c15.25-1.21,17.32-6.15,17.32-6.15l-.29,4.3s-4.44,5.71-19.64,5.83c-17.87.13-24.29-6.24-24.29-6.24Z" style="fill:#0565FF"></path><path d="M316,170.54c-5.88,3.37-15.82,1.66-18.88-6.31.57,3.81,2.2,7.89,7.26,9.38C310.77,175.49,315.35,171.74,316,170.54Z" style="fill:#0565FF;opacity:0.4"></path></g><g id="freepik--Head--inject-46"><path d="M316.45,132.24c0-1.15,0-3,0-3a11.49,11.49,0,0,0,7.14-1.89c2.94-2.35,4.62-7.53,4.21-17.14-.36-8.68-2.29-11.71-4.67-13.4s-5.78.39-6.78,2.32c-1.54-1.55-5.32-3.74-9-.43-1.69,1.54-1.55,5-2.15,8.15a4.89,4.89,0,0,1-3.6,4c1,4.35-2,4.67-2.72,3.31s-.75-2.27-2.6-3.45-4.21-.09-5.23,1.52c-1.24,2-1,4.89,1.59,7.79a5,5,0,0,0,4.67,1.94,4.75,4.75,0,0,0,2.78-1.5l.17,9.78c.14,2.67-.74,5.11-5.09,5.91,2.25,4.2,3.9,7,9,9.24s12.23,3.78,14.73,5.94c1.17-3,4.19-5.12,3.92-7.27s-.59-6.75-3.6-10.15C317.81,133.86,316.47,133.39,316.45,132.24Z" style="fill:#b16668"></path><path d="M324.49,106.34l-3.6-1.68a1.9,1.9,0,0,1,2.58-1A2.09,2.09,0,0,1,324.49,106.34Z" style="fill:#263238"></path><path d="M320.79,109.69a1.49,1.49,0,1,0,2.89-.76,1.49,1.49,0,0,0-2.89.76Z" style="fill:#263238"></path><path d="M322.06,107.83c1.22-.12,1.6.53,2.05.72a1.25,1.25,0,0,0,1.11-.18,1.4,1.4,0,0,1-1.81.88,1.82,1.82,0,0,1-1.42-1.41" style="fill:#263238"></path><path d="M312.29,109.94a1.49,1.49,0,0,1-1.65,1.32,1.49,1.49,0,1,1,.34-3A1.49,1.49,0,0,1,312.29,109.94Z" style="fill:#263238"></path><path d="M310.78,108.28c-1.24.06-1.52.75-1.93,1a1.25,1.25,0,0,1-1.13,0,1.41,1.41,0,0,0,1.92.62,1.8,1.8,0,0,0,1.2-1.6" style="fill:#263238"></path><path d="M311.2,104.7l-3.55,1.79a1.91,1.91,0,0,1,.81-2.65A2.09,2.09,0,0,1,311.2,104.7Z" style="fill:#263238"></path><path d="M312,118.6l5.35,1.16a2.74,2.74,0,0,1-3.51,2A2.56,2.56,0,0,1,312,118.6Z" style="fill:#9a4a4d"></path><path d="M315.35,121.79a2.88,2.88,0,0,0-3.12-2.26,2,2,0,0,0-.26.06,2.38,2.38,0,0,0,1.87,2.19A3,3,0,0,0,315.35,121.79Z" style="fill:#f28f8f"></path><polygon points="315.7 106.14 316.29 117 322.22 115.01 315.7 106.14" style="fill:#9a4a4d"></polygon><path d="M316.41,129.23c-3.33-.24-7.21-.58-10.22-2.61a13.38,13.38,0,0,1-4.9-5s0,3.75,4.34,7c3.67,2.76,10.82,3,10.82,3Z" style="fill:#9a4a4d"></path></g><path d="M221,141.72v3.08s2.31,2.81,2.37,5.23-1.62,2.38-1.62,2.38a4,4,0,0,1,.81,2.69c-.11,1.62-1.24,1.78-1.24,1.78a5.6,5.6,0,0,1,.21,2.48c-.21,1.24-1.06,1-1.9.39a6.8,6.8,0,0,1-2.1-4.9c.07-2.12.93-2.66.93-2.66a7.87,7.87,0,0,1-.43-3.67,3.44,3.44,0,0,1,1.05-2.32S218.29,141,221,141.72Z" style="fill:#9a4a4d"></path><path d="M289.89,137.06c-8.3,1.09-10.28,4.95-22.27,17.39-6.56,6.8-8.3,8.25-8.3,8.25l-29.27-11.35v12.14s18.43,9.88,23.7,12.78c6.79,3.74,9.78,3.77,15.11-.41s17.81-15.71,17.81-15.71S296.9,145.44,289.89,137.06Z" style="fill:#b16668"></path><path d="M239.82,155.14c-4.5-1.64-5-4.19-6.83-6.71s-3.05-3.24-6.42-4.7A56.71,56.71,0,0,1,221,141c-.94-.52-2,2.53-.33,4.32s4.89,3.76,5.51,6.35c.92,3.8,1.53,5.58,3.84,8Z" style="fill:#b16668"></path></g></g></g></svg>